G75*
G70*
%OFA0B0*%
%FSLAX24Y24*%
%IPPOS*%
%LPD*%
%AMOC8*
5,1,8,0,0,1.08239X$1,22.5*
%
%ADD10C,0.0110*%
%ADD11C,0.1457*%
%ADD12R,0.1457X0.1457*%
%ADD13R,0.1457X0.1457*%
%ADD14C,0.0740*%
%ADD15C,0.0100*%
D10*
X019923Y007603D02*
X020022Y007505D01*
X020219Y007505D01*
X020317Y007603D01*
X020541Y007603D02*
X020541Y007505D01*
X020639Y007505D01*
X020639Y007603D01*
X020541Y007603D01*
X020890Y007505D02*
X021284Y007505D01*
X021087Y007505D02*
X021087Y008096D01*
X021284Y007899D01*
X021535Y007899D02*
X021731Y007505D01*
X021928Y007899D01*
X020317Y007997D02*
X020219Y008096D01*
X020022Y008096D01*
X019923Y007997D01*
X019923Y007899D01*
X020022Y007800D01*
X019923Y007702D01*
X019923Y007603D01*
X020022Y007800D02*
X020120Y007800D01*
D11*
X020833Y009750D03*
X017617Y015350D03*
X024049Y015350D03*
D12*
X020833Y011750D03*
D13*
G36*
X019083Y015344D02*
X020343Y014616D01*
X019615Y013356D01*
X018355Y014084D01*
X019083Y015344D01*
G37*
G36*
X023311Y014084D02*
X022051Y013356D01*
X021323Y014616D01*
X022583Y015344D01*
X023311Y014084D01*
G37*
D14*
X026533Y014518D03*
X026383Y012049D03*
X024983Y011125D03*
X024083Y011067D03*
X024583Y011933D03*
X024883Y009451D03*
X022833Y008000D03*
X018833Y008000D03*
X016833Y009451D03*
X017633Y011067D03*
X016734Y011125D03*
X017133Y011933D03*
X015333Y012049D03*
X015133Y014518D03*
X020333Y017500D03*
X021333Y017500D03*
X020833Y018250D03*
X022333Y019000D03*
X024533Y017982D03*
X019333Y019000D03*
X017133Y017982D03*
X018833Y021500D03*
X019833Y021500D03*
X020833Y021500D03*
X021833Y021500D03*
X022833Y021500D03*
D15*
X014553Y020471D02*
X014553Y008529D01*
X014602Y008614D01*
X014856Y008827D01*
X014856Y008827D01*
X015168Y008940D01*
X015499Y008940D01*
X015811Y008827D01*
X015811Y008827D01*
X016065Y008614D01*
X016065Y008614D01*
X016230Y008326D01*
X016230Y008326D01*
X016288Y008000D01*
X016288Y008000D01*
X016230Y007674D01*
X016230Y007674D01*
X016065Y007386D01*
X016065Y007386D01*
X016065Y007386D01*
X015866Y007220D01*
X025801Y007220D01*
X025602Y007386D01*
X025602Y007386D01*
X025436Y007674D01*
X025436Y007674D01*
X025379Y008000D01*
X025379Y008000D01*
X025436Y008326D01*
X025436Y008326D01*
X025602Y008614D01*
X025602Y008614D01*
X025602Y008614D01*
X025856Y008827D01*
X025856Y008827D01*
X026168Y008940D01*
X026499Y008940D01*
X026811Y008827D01*
X026811Y008827D01*
X027065Y008614D01*
X027065Y008614D01*
X027113Y008529D01*
X027113Y020471D01*
X027065Y020386D01*
X027065Y020386D01*
X026811Y020173D01*
X026499Y020060D01*
X026499Y020060D01*
X026168Y020060D01*
X025856Y020173D01*
X025856Y020173D01*
X025602Y020386D01*
X025602Y020386D01*
X025436Y020674D01*
X025436Y020674D01*
X025379Y021000D01*
X025379Y021000D01*
X025436Y021326D01*
X025436Y021326D01*
X025602Y021614D01*
X025602Y021614D01*
X025602Y021614D01*
X025801Y021780D01*
X023302Y021780D01*
X023373Y021607D01*
X023373Y021393D01*
X023291Y021194D01*
X023139Y021042D01*
X022941Y020960D01*
X022726Y020960D01*
X022527Y021042D01*
X022376Y021194D01*
X022322Y021322D01*
X022315Y021300D01*
X022278Y021227D01*
X022230Y021161D01*
X022172Y021103D01*
X022106Y021055D01*
X022033Y021018D01*
X021955Y020993D01*
X021883Y020981D01*
X021883Y021450D01*
X021783Y021450D01*
X021783Y020981D01*
X021712Y020993D01*
X021634Y021018D01*
X021561Y021055D01*
X021495Y021103D01*
X021437Y021161D01*
X021389Y021227D01*
X021351Y021300D01*
X021344Y021322D01*
X021291Y021194D01*
X021139Y021042D01*
X021053Y021007D01*
X021053Y020591D01*
X021424Y020220D01*
X024924Y020220D01*
X025053Y020091D01*
X026053Y019091D01*
X026053Y014770D01*
X026076Y014824D01*
X026227Y014976D01*
X026426Y015058D01*
X026641Y015058D01*
X026839Y014976D01*
X026991Y014824D01*
X027073Y014625D01*
X027073Y014411D01*
X026991Y014212D01*
X026839Y014060D01*
X026641Y013978D01*
X026426Y013978D01*
X026227Y014060D01*
X026076Y014212D01*
X026053Y014266D01*
X026053Y014091D01*
X026603Y013541D01*
X026603Y012542D01*
X026689Y012507D01*
X026841Y012355D01*
X026923Y012156D01*
X026923Y011942D01*
X026841Y011743D01*
X026689Y011591D01*
X026491Y011509D01*
X026276Y011509D01*
X026077Y011591D01*
X025926Y011743D01*
X025843Y011942D01*
X025843Y012156D01*
X025926Y012355D01*
X026077Y012507D01*
X026163Y012542D01*
X026163Y013359D01*
X025742Y013780D01*
X025613Y013909D01*
X025613Y018909D01*
X024742Y019780D01*
X021242Y019780D01*
X020742Y020280D01*
X020613Y020409D01*
X020613Y021007D01*
X020527Y021042D01*
X020376Y021194D01*
X020333Y021296D01*
X020291Y021194D01*
X020139Y021042D01*
X020053Y021007D01*
X020053Y019409D01*
X019924Y019280D01*
X019838Y019193D01*
X019873Y019107D01*
X019873Y018893D01*
X019791Y018694D01*
X019639Y018542D01*
X019441Y018460D01*
X019226Y018460D01*
X019027Y018542D01*
X018876Y018694D01*
X018793Y018893D01*
X018793Y019107D01*
X018876Y019306D01*
X019027Y019458D01*
X019226Y019540D01*
X019441Y019540D01*
X019527Y019504D01*
X019613Y019591D01*
X019613Y021007D01*
X019527Y021042D01*
X019376Y021194D01*
X019333Y021296D01*
X019291Y021194D01*
X019139Y021042D01*
X018941Y020960D01*
X018726Y020960D01*
X018527Y021042D01*
X018376Y021194D01*
X018365Y021220D01*
X016053Y018909D01*
X016053Y010542D01*
X016640Y009955D01*
X016726Y009991D01*
X016941Y009991D01*
X017139Y009909D01*
X017291Y009757D01*
X019935Y009757D01*
X019935Y009855D02*
X017192Y009855D01*
X017291Y009757D02*
X017373Y009558D01*
X017373Y009344D01*
X017291Y009145D01*
X017139Y008993D01*
X016941Y008911D01*
X016726Y008911D01*
X016527Y008993D01*
X016376Y009145D01*
X016293Y009344D01*
X016293Y009558D01*
X016329Y009644D01*
X015669Y010304D01*
X015613Y010360D01*
X015613Y010360D01*
X015613Y010452D01*
X015613Y011581D01*
X015441Y011509D01*
X015226Y011509D01*
X015027Y011591D01*
X014876Y011743D01*
X014793Y011942D01*
X014793Y012156D01*
X014876Y012355D01*
X015027Y012507D01*
X015226Y012589D01*
X015441Y012589D01*
X015613Y012518D01*
X015613Y014266D01*
X015591Y014212D01*
X015439Y014060D01*
X015241Y013978D01*
X015026Y013978D01*
X014827Y014060D01*
X014676Y014212D01*
X014593Y014411D01*
X014593Y014625D01*
X014676Y014824D01*
X014827Y014976D01*
X015026Y015058D01*
X015241Y015058D01*
X015439Y014976D01*
X015591Y014824D01*
X015613Y014770D01*
X015613Y019091D01*
X015742Y019220D01*
X018113Y021591D01*
X018242Y021720D01*
X018340Y021720D01*
X018365Y021780D01*
X015866Y021780D01*
X016065Y021614D01*
X016065Y021614D01*
X016230Y021326D01*
X016230Y021326D01*
X016288Y021000D01*
X016288Y021000D01*
X016230Y020674D01*
X016230Y020674D01*
X016065Y020386D01*
X016065Y020386D01*
X016065Y020386D01*
X015811Y020173D01*
X015811Y020173D01*
X015499Y020060D01*
X015168Y020060D01*
X014856Y020173D01*
X014856Y020173D01*
X014602Y020386D01*
X014602Y020386D01*
X014553Y020471D01*
X014553Y020395D02*
X014597Y020395D01*
X014553Y020297D02*
X014709Y020297D01*
X014827Y020198D02*
X014553Y020198D01*
X014553Y020100D02*
X015059Y020100D01*
X015608Y020100D02*
X016622Y020100D01*
X016720Y020198D02*
X015840Y020198D01*
X015957Y020297D02*
X016819Y020297D01*
X016917Y020395D02*
X016069Y020395D01*
X016126Y020494D02*
X017016Y020494D01*
X017114Y020592D02*
X016183Y020592D01*
X016233Y020691D02*
X017213Y020691D01*
X017311Y020789D02*
X016251Y020789D01*
X016268Y020888D02*
X017410Y020888D01*
X017508Y020986D02*
X016285Y020986D01*
X016273Y021085D02*
X017607Y021085D01*
X017705Y021183D02*
X016256Y021183D01*
X016238Y021282D02*
X017804Y021282D01*
X017902Y021380D02*
X016199Y021380D01*
X016142Y021479D02*
X018001Y021479D01*
X018099Y021577D02*
X016086Y021577D01*
X015991Y021676D02*
X018198Y021676D01*
X018362Y021774D02*
X015873Y021774D01*
X017736Y020592D02*
X019613Y020592D01*
X019613Y020494D02*
X017638Y020494D01*
X017539Y020395D02*
X019613Y020395D01*
X019613Y020297D02*
X017441Y020297D01*
X017342Y020198D02*
X019613Y020198D01*
X019613Y020100D02*
X017244Y020100D01*
X017145Y020001D02*
X019613Y020001D01*
X019613Y019903D02*
X017047Y019903D01*
X016948Y019804D02*
X019613Y019804D01*
X019613Y019706D02*
X016850Y019706D01*
X016751Y019607D02*
X019613Y019607D01*
X019531Y019509D02*
X019517Y019509D01*
X019833Y019500D02*
X019833Y021500D01*
X020327Y021282D02*
X020339Y021282D01*
X020387Y021183D02*
X020280Y021183D01*
X020182Y021085D02*
X020485Y021085D01*
X020613Y020986D02*
X020053Y020986D01*
X020053Y020888D02*
X020613Y020888D01*
X020613Y020789D02*
X020053Y020789D01*
X020053Y020691D02*
X020613Y020691D01*
X020613Y020592D02*
X020053Y020592D01*
X020053Y020494D02*
X020613Y020494D01*
X020627Y020395D02*
X020053Y020395D01*
X020053Y020297D02*
X020726Y020297D01*
X020824Y020198D02*
X020053Y020198D01*
X020053Y020100D02*
X020923Y020100D01*
X021021Y020001D02*
X020053Y020001D01*
X020053Y019903D02*
X021120Y019903D01*
X021218Y019804D02*
X020053Y019804D01*
X020053Y019706D02*
X024817Y019706D01*
X024915Y019607D02*
X020053Y019607D01*
X020053Y019509D02*
X022150Y019509D01*
X022226Y019540D02*
X022027Y019458D01*
X021876Y019306D01*
X021793Y019107D01*
X021793Y018893D01*
X021876Y018694D01*
X022027Y018542D01*
X022226Y018460D01*
X022441Y018460D01*
X022639Y018542D01*
X022791Y018694D01*
X022873Y018893D01*
X022873Y019107D01*
X022791Y019306D01*
X022639Y019458D01*
X022441Y019540D01*
X022226Y019540D01*
X021980Y019410D02*
X020053Y019410D01*
X019956Y019312D02*
X021881Y019312D01*
X021837Y019213D02*
X019857Y019213D01*
X019870Y019115D02*
X021796Y019115D01*
X021793Y019016D02*
X019873Y019016D01*
X019873Y018918D02*
X021793Y018918D01*
X021824Y018819D02*
X019843Y018819D01*
X019802Y018721D02*
X020558Y018721D01*
X020527Y018708D02*
X020376Y018556D01*
X020293Y018357D01*
X020293Y018143D01*
X020363Y017974D01*
X020363Y017530D01*
X020303Y017530D01*
X020303Y017470D01*
X019813Y017470D01*
X019813Y017459D01*
X019826Y017378D01*
X019851Y017300D01*
X019889Y017227D01*
X019937Y017161D01*
X019995Y017103D01*
X020061Y017055D01*
X020134Y017018D01*
X020212Y016993D01*
X020292Y016980D01*
X020303Y016980D01*
X020303Y017470D01*
X020363Y017470D01*
X020363Y016980D01*
X020374Y016980D01*
X020455Y016993D01*
X020533Y017018D01*
X020606Y017055D01*
X020672Y017103D01*
X020730Y017161D01*
X020778Y017227D01*
X020815Y017300D01*
X020822Y017322D01*
X020876Y017194D01*
X021027Y017042D01*
X021226Y016960D01*
X021441Y016960D01*
X021639Y017042D01*
X021791Y017194D01*
X021873Y017393D01*
X021873Y017607D01*
X021791Y017806D01*
X021639Y017958D01*
X021441Y018040D01*
X021331Y018040D01*
X021373Y018143D01*
X021373Y018357D01*
X021291Y018556D01*
X021139Y018708D01*
X020941Y018790D01*
X020726Y018790D01*
X020527Y018708D01*
X020442Y018622D02*
X019719Y018622D01*
X019594Y018524D02*
X020362Y018524D01*
X020321Y018425D02*
X017454Y018425D01*
X017439Y018440D02*
X017591Y018288D01*
X017673Y018089D01*
X017673Y017875D01*
X017591Y017676D01*
X017439Y017524D01*
X017241Y017442D01*
X017026Y017442D01*
X016827Y017524D01*
X016676Y017676D01*
X016593Y017875D01*
X016593Y018089D01*
X016676Y018288D01*
X016827Y018440D01*
X017026Y018522D01*
X017241Y018522D01*
X017439Y018440D01*
X017553Y018327D02*
X020293Y018327D01*
X020293Y018228D02*
X017616Y018228D01*
X017657Y018130D02*
X020299Y018130D01*
X020340Y018031D02*
X017673Y018031D01*
X017673Y017933D02*
X020044Y017933D01*
X020061Y017945D02*
X019995Y017897D01*
X019937Y017839D01*
X019889Y017773D01*
X019851Y017700D01*
X019826Y017622D01*
X019813Y017541D01*
X019813Y017530D01*
X020303Y017530D01*
X020303Y018020D01*
X020292Y018020D01*
X020212Y018007D01*
X020134Y017982D01*
X020061Y017945D01*
X019933Y017834D02*
X017657Y017834D01*
X017616Y017736D02*
X019870Y017736D01*
X019831Y017637D02*
X017552Y017637D01*
X017453Y017539D02*
X019813Y017539D01*
X019816Y017440D02*
X016053Y017440D01*
X016053Y017342D02*
X019838Y017342D01*
X019881Y017243D02*
X016053Y017243D01*
X016053Y017145D02*
X019953Y017145D01*
X020079Y017046D02*
X016053Y017046D01*
X016053Y016948D02*
X025613Y016948D01*
X025613Y017046D02*
X021643Y017046D01*
X021742Y017145D02*
X025613Y017145D01*
X025613Y017243D02*
X021811Y017243D01*
X021852Y017342D02*
X025613Y017342D01*
X025613Y017440D02*
X021873Y017440D01*
X021873Y017539D02*
X024213Y017539D01*
X024227Y017524D02*
X024426Y017442D01*
X024641Y017442D01*
X024839Y017524D01*
X024991Y017676D01*
X025073Y017875D01*
X025073Y018089D01*
X024991Y018288D01*
X024839Y018440D01*
X024641Y018522D01*
X024426Y018522D01*
X024227Y018440D01*
X024076Y018288D01*
X023993Y018089D01*
X023993Y017875D01*
X024076Y017676D01*
X024227Y017524D01*
X024115Y017637D02*
X021861Y017637D01*
X021820Y017736D02*
X024051Y017736D01*
X024010Y017834D02*
X021763Y017834D01*
X021664Y017933D02*
X023993Y017933D01*
X023993Y018031D02*
X021462Y018031D01*
X021368Y018130D02*
X024010Y018130D01*
X024051Y018228D02*
X021373Y018228D01*
X021373Y018327D02*
X024114Y018327D01*
X024213Y018425D02*
X021345Y018425D01*
X021305Y018524D02*
X022073Y018524D01*
X021948Y018622D02*
X021225Y018622D01*
X021109Y018721D02*
X021865Y018721D01*
X022594Y018524D02*
X025613Y018524D01*
X025613Y018622D02*
X022719Y018622D01*
X022802Y018721D02*
X025613Y018721D01*
X025613Y018819D02*
X022843Y018819D01*
X022873Y018918D02*
X025605Y018918D01*
X025506Y019016D02*
X022873Y019016D01*
X022870Y019115D02*
X025408Y019115D01*
X025309Y019213D02*
X022830Y019213D01*
X022785Y019312D02*
X025211Y019312D01*
X025112Y019410D02*
X022687Y019410D01*
X022517Y019509D02*
X025014Y019509D01*
X025340Y019804D02*
X027113Y019804D01*
X027113Y019706D02*
X025439Y019706D01*
X025537Y019607D02*
X027113Y019607D01*
X027113Y019509D02*
X025636Y019509D01*
X025734Y019410D02*
X027113Y019410D01*
X027113Y019312D02*
X025833Y019312D01*
X025931Y019213D02*
X027113Y019213D01*
X027113Y019115D02*
X026030Y019115D01*
X026053Y019016D02*
X027113Y019016D01*
X027113Y018918D02*
X026053Y018918D01*
X026053Y018819D02*
X027113Y018819D01*
X027113Y018721D02*
X026053Y018721D01*
X026053Y018622D02*
X027113Y018622D01*
X027113Y018524D02*
X026053Y018524D01*
X026053Y018425D02*
X027113Y018425D01*
X027113Y018327D02*
X026053Y018327D01*
X026053Y018228D02*
X027113Y018228D01*
X027113Y018130D02*
X026053Y018130D01*
X026053Y018031D02*
X027113Y018031D01*
X027113Y017933D02*
X026053Y017933D01*
X026053Y017834D02*
X027113Y017834D01*
X027113Y017736D02*
X026053Y017736D01*
X026053Y017637D02*
X027113Y017637D01*
X027113Y017539D02*
X026053Y017539D01*
X026053Y017440D02*
X027113Y017440D01*
X027113Y017342D02*
X026053Y017342D01*
X026053Y017243D02*
X027113Y017243D01*
X027113Y017145D02*
X026053Y017145D01*
X026053Y017046D02*
X027113Y017046D01*
X027113Y016948D02*
X026053Y016948D01*
X026053Y016849D02*
X027113Y016849D01*
X027113Y016751D02*
X026053Y016751D01*
X026053Y016652D02*
X027113Y016652D01*
X027113Y016554D02*
X026053Y016554D01*
X026053Y016455D02*
X027113Y016455D01*
X027113Y016357D02*
X026053Y016357D01*
X026053Y016258D02*
X027113Y016258D01*
X027113Y016160D02*
X026053Y016160D01*
X026053Y016061D02*
X027113Y016061D01*
X027113Y015963D02*
X026053Y015963D01*
X026053Y015864D02*
X027113Y015864D01*
X027113Y015766D02*
X026053Y015766D01*
X026053Y015667D02*
X027113Y015667D01*
X027113Y015569D02*
X026053Y015569D01*
X026053Y015470D02*
X027113Y015470D01*
X027113Y015372D02*
X026053Y015372D01*
X026053Y015273D02*
X027113Y015273D01*
X027113Y015175D02*
X026053Y015175D01*
X026053Y015076D02*
X027113Y015076D01*
X027113Y014978D02*
X026835Y014978D01*
X026936Y014879D02*
X027113Y014879D01*
X027113Y014781D02*
X027009Y014781D01*
X027050Y014682D02*
X027113Y014682D01*
X027113Y014584D02*
X027073Y014584D01*
X027073Y014485D02*
X027113Y014485D01*
X027113Y014387D02*
X027063Y014387D01*
X027023Y014288D02*
X027113Y014288D01*
X027113Y014190D02*
X026969Y014190D01*
X026870Y014091D02*
X027113Y014091D01*
X027113Y013993D02*
X026676Y013993D01*
X026391Y013993D02*
X026152Y013993D01*
X026197Y014091D02*
X026053Y014091D01*
X026053Y014190D02*
X026098Y014190D01*
X025833Y014000D02*
X025833Y019000D01*
X024833Y020000D01*
X021333Y020000D01*
X020833Y020500D01*
X020833Y021500D01*
X021327Y021282D02*
X021361Y021282D01*
X021421Y021183D02*
X021280Y021183D01*
X021182Y021085D02*
X021521Y021085D01*
X021754Y020986D02*
X021053Y020986D01*
X021053Y020888D02*
X025399Y020888D01*
X025381Y020986D02*
X023004Y020986D01*
X023182Y021085D02*
X025394Y021085D01*
X025411Y021183D02*
X023280Y021183D01*
X023327Y021282D02*
X025428Y021282D01*
X025467Y021380D02*
X023368Y021380D01*
X023373Y021479D02*
X025524Y021479D01*
X025581Y021577D02*
X023373Y021577D01*
X023345Y021676D02*
X025676Y021676D01*
X025793Y021774D02*
X023304Y021774D01*
X022485Y021085D02*
X022146Y021085D01*
X022246Y021183D02*
X022387Y021183D01*
X022339Y021282D02*
X022306Y021282D01*
X021883Y021282D02*
X021783Y021282D01*
X021783Y021380D02*
X021883Y021380D01*
X021883Y021183D02*
X021783Y021183D01*
X021783Y021085D02*
X021883Y021085D01*
X021883Y020986D02*
X021783Y020986D01*
X021912Y020986D02*
X022663Y020986D01*
X021348Y020297D02*
X025709Y020297D01*
X025597Y020395D02*
X021249Y020395D01*
X021151Y020494D02*
X025540Y020494D01*
X025483Y020592D02*
X021053Y020592D01*
X021053Y020691D02*
X025433Y020691D01*
X025416Y020789D02*
X021053Y020789D01*
X019613Y020789D02*
X017933Y020789D01*
X017835Y020691D02*
X019613Y020691D01*
X019613Y020888D02*
X018032Y020888D01*
X018130Y020986D02*
X018663Y020986D01*
X018485Y021085D02*
X018229Y021085D01*
X018327Y021183D02*
X018387Y021183D01*
X018333Y021500D02*
X018833Y021500D01*
X018333Y021500D02*
X015833Y019000D01*
X015833Y010451D01*
X016833Y009451D01*
X016453Y009067D02*
X014553Y009067D01*
X014553Y008969D02*
X016586Y008969D01*
X016367Y009166D02*
X014553Y009166D01*
X014553Y009264D02*
X016326Y009264D01*
X016293Y009363D02*
X014553Y009363D01*
X014553Y009461D02*
X016293Y009461D01*
X016294Y009560D02*
X014553Y009560D01*
X014553Y009658D02*
X016315Y009658D01*
X016216Y009757D02*
X014553Y009757D01*
X014553Y009855D02*
X016118Y009855D01*
X016019Y009954D02*
X014553Y009954D01*
X014553Y010052D02*
X015921Y010052D01*
X015822Y010151D02*
X014553Y010151D01*
X014553Y010249D02*
X015724Y010249D01*
X015625Y010348D02*
X014553Y010348D01*
X014553Y010446D02*
X015613Y010446D01*
X015613Y010360D02*
X015613Y010360D01*
X015613Y010545D02*
X014553Y010545D01*
X014553Y010643D02*
X015613Y010643D01*
X015613Y010742D02*
X014553Y010742D01*
X014553Y010840D02*
X015613Y010840D01*
X015613Y010939D02*
X014553Y010939D01*
X014553Y011037D02*
X015613Y011037D01*
X015613Y011136D02*
X014553Y011136D01*
X014553Y011234D02*
X015613Y011234D01*
X015613Y011333D02*
X014553Y011333D01*
X014553Y011431D02*
X015613Y011431D01*
X015613Y011530D02*
X015491Y011530D01*
X015175Y011530D02*
X014553Y011530D01*
X014553Y011628D02*
X014990Y011628D01*
X014892Y011727D02*
X014553Y011727D01*
X014553Y011825D02*
X014841Y011825D01*
X014801Y011924D02*
X014553Y011924D01*
X014553Y012022D02*
X014793Y012022D01*
X014793Y012121D02*
X014553Y012121D01*
X014553Y012219D02*
X014819Y012219D01*
X014860Y012318D02*
X014553Y012318D01*
X014553Y012416D02*
X014937Y012416D01*
X015047Y012515D02*
X014553Y012515D01*
X014553Y012613D02*
X015613Y012613D01*
X015613Y012712D02*
X014553Y012712D01*
X014553Y012810D02*
X015613Y012810D01*
X015613Y012909D02*
X014553Y012909D01*
X014553Y013007D02*
X015613Y013007D01*
X015613Y013106D02*
X014553Y013106D01*
X014553Y013204D02*
X015613Y013204D01*
X015613Y013303D02*
X014553Y013303D01*
X014553Y013401D02*
X015613Y013401D01*
X015613Y013500D02*
X014553Y013500D01*
X014553Y013599D02*
X015613Y013599D01*
X015613Y013697D02*
X014553Y013697D01*
X014553Y013796D02*
X015613Y013796D01*
X015613Y013894D02*
X014553Y013894D01*
X014553Y013993D02*
X014991Y013993D01*
X014797Y014091D02*
X014553Y014091D01*
X014553Y014190D02*
X014698Y014190D01*
X014644Y014288D02*
X014553Y014288D01*
X014553Y014387D02*
X014603Y014387D01*
X014593Y014485D02*
X014553Y014485D01*
X014553Y014584D02*
X014593Y014584D01*
X014617Y014682D02*
X014553Y014682D01*
X014553Y014781D02*
X014658Y014781D01*
X014731Y014879D02*
X014553Y014879D01*
X014553Y014978D02*
X014832Y014978D01*
X014553Y015076D02*
X015613Y015076D01*
X015613Y014978D02*
X015435Y014978D01*
X015536Y014879D02*
X015613Y014879D01*
X015609Y014781D02*
X015613Y014781D01*
X016053Y014781D02*
X016916Y014781D01*
X016856Y014841D02*
X017108Y014588D01*
X017439Y014452D01*
X017796Y014452D01*
X018126Y014588D01*
X018379Y014841D01*
X018516Y015171D01*
X018516Y015529D01*
X018379Y015859D01*
X018126Y016112D01*
X017796Y016248D01*
X017439Y016248D01*
X017108Y016112D01*
X016856Y015859D01*
X016719Y015529D01*
X016719Y015171D01*
X016856Y014841D01*
X016840Y014879D02*
X016053Y014879D01*
X016053Y014978D02*
X016799Y014978D01*
X016758Y015076D02*
X016053Y015076D01*
X016053Y015175D02*
X016719Y015175D01*
X016719Y015273D02*
X016053Y015273D01*
X016053Y015372D02*
X016719Y015372D01*
X016719Y015470D02*
X016053Y015470D01*
X016053Y015569D02*
X016735Y015569D01*
X016776Y015667D02*
X016053Y015667D01*
X016053Y015766D02*
X016817Y015766D01*
X016861Y015864D02*
X016053Y015864D01*
X016053Y015963D02*
X016959Y015963D01*
X017058Y016061D02*
X016053Y016061D01*
X016053Y016160D02*
X017224Y016160D01*
X018010Y016160D02*
X023656Y016160D01*
X023540Y016112D02*
X023871Y016248D01*
X024228Y016248D01*
X024558Y016112D01*
X024811Y015859D01*
X024948Y015529D01*
X024948Y015171D01*
X024811Y014841D01*
X024558Y014588D01*
X024228Y014452D01*
X023871Y014452D01*
X023540Y014588D01*
X023288Y014841D01*
X023151Y015171D01*
X023151Y015529D01*
X023288Y015859D01*
X023540Y016112D01*
X023490Y016061D02*
X018177Y016061D01*
X018275Y015963D02*
X023391Y015963D01*
X023293Y015864D02*
X018374Y015864D01*
X018418Y015766D02*
X023249Y015766D01*
X023208Y015667D02*
X018458Y015667D01*
X018499Y015569D02*
X023168Y015569D01*
X023151Y015470D02*
X022708Y015470D01*
X022696Y015491D02*
X022560Y015527D01*
X021176Y014729D01*
X021140Y014593D01*
X021939Y013209D01*
X022075Y013173D01*
X023458Y013971D01*
X023495Y014107D01*
X022696Y015491D01*
X022765Y015372D02*
X023151Y015372D01*
X023151Y015273D02*
X022822Y015273D01*
X022879Y015175D02*
X023151Y015175D01*
X023190Y015076D02*
X022935Y015076D01*
X022992Y014978D02*
X023231Y014978D01*
X023272Y014879D02*
X023049Y014879D01*
X023106Y014781D02*
X023348Y014781D01*
X023447Y014682D02*
X023163Y014682D01*
X023220Y014584D02*
X023552Y014584D01*
X023790Y014485D02*
X023277Y014485D01*
X023334Y014387D02*
X025613Y014387D01*
X025613Y014485D02*
X024309Y014485D01*
X024546Y014584D02*
X025613Y014584D01*
X025613Y014682D02*
X024652Y014682D01*
X024750Y014781D02*
X025613Y014781D01*
X025613Y014879D02*
X024827Y014879D01*
X024867Y014978D02*
X025613Y014978D01*
X025613Y015076D02*
X024908Y015076D01*
X024948Y015175D02*
X025613Y015175D01*
X025613Y015273D02*
X024948Y015273D01*
X024948Y015372D02*
X025613Y015372D01*
X025613Y015470D02*
X024948Y015470D01*
X024931Y015569D02*
X025613Y015569D01*
X025613Y015667D02*
X024890Y015667D01*
X024850Y015766D02*
X025613Y015766D01*
X025613Y015864D02*
X024806Y015864D01*
X024707Y015963D02*
X025613Y015963D01*
X025613Y016061D02*
X024609Y016061D01*
X024443Y016160D02*
X025613Y016160D01*
X025613Y016258D02*
X016053Y016258D01*
X016053Y016357D02*
X025613Y016357D01*
X025613Y016455D02*
X016053Y016455D01*
X016053Y016554D02*
X025613Y016554D01*
X025613Y016652D02*
X016053Y016652D01*
X016053Y016751D02*
X025613Y016751D01*
X025613Y016849D02*
X016053Y016849D01*
X015613Y016849D02*
X014553Y016849D01*
X014553Y016751D02*
X015613Y016751D01*
X015613Y016652D02*
X014553Y016652D01*
X014553Y016554D02*
X015613Y016554D01*
X015613Y016455D02*
X014553Y016455D01*
X014553Y016357D02*
X015613Y016357D01*
X015613Y016258D02*
X014553Y016258D01*
X014553Y016160D02*
X015613Y016160D01*
X015613Y016061D02*
X014553Y016061D01*
X014553Y015963D02*
X015613Y015963D01*
X015613Y015864D02*
X014553Y015864D01*
X014553Y015766D02*
X015613Y015766D01*
X015613Y015667D02*
X014553Y015667D01*
X014553Y015569D02*
X015613Y015569D01*
X015613Y015470D02*
X014553Y015470D01*
X014553Y015372D02*
X015613Y015372D01*
X015613Y015273D02*
X014553Y015273D01*
X014553Y015175D02*
X015613Y015175D01*
X016053Y014682D02*
X017015Y014682D01*
X017120Y014584D02*
X016053Y014584D01*
X016053Y014485D02*
X017358Y014485D01*
X017877Y014485D02*
X018390Y014485D01*
X018447Y014584D02*
X018114Y014584D01*
X018220Y014682D02*
X018504Y014682D01*
X018561Y014781D02*
X018318Y014781D01*
X018395Y014879D02*
X018617Y014879D01*
X018674Y014978D02*
X018435Y014978D01*
X018476Y015076D02*
X018731Y015076D01*
X018788Y015175D02*
X018516Y015175D01*
X018516Y015273D02*
X018845Y015273D01*
X018902Y015372D02*
X018516Y015372D01*
X018516Y015470D02*
X018959Y015470D01*
X018971Y015491D02*
X019107Y015527D01*
X020490Y014729D01*
X020527Y014593D01*
X019728Y013209D01*
X019592Y013173D01*
X018208Y013971D01*
X018172Y014107D01*
X018971Y015491D01*
X019206Y015470D02*
X022461Y015470D01*
X022290Y015372D02*
X019377Y015372D01*
X019547Y015273D02*
X022119Y015273D01*
X021949Y015175D02*
X019718Y015175D01*
X019889Y015076D02*
X021778Y015076D01*
X021607Y014978D02*
X020059Y014978D01*
X020230Y014879D02*
X021437Y014879D01*
X021266Y014781D02*
X020400Y014781D01*
X020503Y014682D02*
X021164Y014682D01*
X021145Y014584D02*
X020521Y014584D01*
X020465Y014485D02*
X021202Y014485D01*
X021259Y014387D02*
X020408Y014387D01*
X020351Y014288D02*
X021316Y014288D01*
X021373Y014190D02*
X020294Y014190D01*
X020237Y014091D02*
X021430Y014091D01*
X021486Y013993D02*
X020180Y013993D01*
X020123Y013894D02*
X021543Y013894D01*
X021600Y013796D02*
X020067Y013796D01*
X020010Y013697D02*
X021657Y013697D01*
X021714Y013599D02*
X019953Y013599D01*
X019896Y013500D02*
X021771Y013500D01*
X021828Y013401D02*
X019839Y013401D01*
X019782Y013303D02*
X021884Y013303D01*
X021956Y013204D02*
X019711Y013204D01*
X019537Y013204D02*
X016053Y013204D01*
X016053Y013106D02*
X026163Y013106D01*
X026163Y013204D02*
X022130Y013204D01*
X022301Y013303D02*
X026163Y013303D01*
X026121Y013401D02*
X022471Y013401D01*
X022642Y013500D02*
X026022Y013500D01*
X025924Y013599D02*
X022812Y013599D01*
X022983Y013697D02*
X025825Y013697D01*
X025727Y013796D02*
X023154Y013796D01*
X023324Y013894D02*
X025628Y013894D01*
X025613Y013993D02*
X023464Y013993D01*
X023490Y014091D02*
X025613Y014091D01*
X025613Y014190D02*
X023447Y014190D01*
X023390Y014288D02*
X025613Y014288D01*
X025833Y014000D02*
X026383Y013450D01*
X026383Y012049D01*
X025891Y011825D02*
X025093Y011825D01*
X025091Y011811D02*
X025103Y011892D01*
X025103Y011974D01*
X025091Y012055D01*
X025065Y012133D01*
X025028Y012206D01*
X024980Y012272D01*
X024922Y012330D01*
X024869Y012368D01*
X024624Y011944D01*
X024572Y011974D01*
X024542Y011922D01*
X024119Y012167D01*
X024101Y012133D01*
X024076Y012055D01*
X024063Y011974D01*
X024063Y011892D01*
X024076Y011811D01*
X024101Y011733D01*
X024139Y011660D01*
X024177Y011607D01*
X023976Y011607D01*
X023777Y011525D01*
X023626Y011373D01*
X023543Y011174D01*
X023543Y010960D01*
X023626Y010761D01*
X023777Y010609D01*
X023976Y010527D01*
X024191Y010527D01*
X024389Y010609D01*
X024541Y010761D01*
X024553Y010791D01*
X024677Y010667D01*
X024875Y010585D01*
X025090Y010585D01*
X025289Y010667D01*
X025441Y010819D01*
X025523Y011018D01*
X025523Y011232D01*
X025441Y011431D01*
X025289Y011583D01*
X025090Y011665D01*
X024988Y011665D01*
X024594Y011892D01*
X024624Y011944D01*
X025048Y011699D01*
X025065Y011733D01*
X025091Y011811D01*
X025062Y011727D02*
X025942Y011727D01*
X026040Y011628D02*
X025178Y011628D01*
X025342Y011530D02*
X026225Y011530D01*
X026541Y011530D02*
X027113Y011530D01*
X027113Y011628D02*
X026726Y011628D01*
X026825Y011727D02*
X027113Y011727D01*
X027113Y011825D02*
X026875Y011825D01*
X026916Y011924D02*
X027113Y011924D01*
X027113Y012022D02*
X026923Y012022D01*
X026923Y012121D02*
X027113Y012121D01*
X027113Y012219D02*
X026897Y012219D01*
X026856Y012318D02*
X027113Y012318D01*
X027113Y012416D02*
X026780Y012416D01*
X026669Y012515D02*
X027113Y012515D01*
X027113Y012613D02*
X026603Y012613D01*
X026603Y012712D02*
X027113Y012712D01*
X027113Y012810D02*
X026603Y012810D01*
X026603Y012909D02*
X027113Y012909D01*
X027113Y013007D02*
X026603Y013007D01*
X026603Y013106D02*
X027113Y013106D01*
X027113Y013204D02*
X026603Y013204D01*
X026603Y013303D02*
X027113Y013303D01*
X027113Y013401D02*
X026603Y013401D01*
X026603Y013500D02*
X027113Y013500D01*
X027113Y013599D02*
X026546Y013599D01*
X026447Y013697D02*
X027113Y013697D01*
X027113Y013796D02*
X026349Y013796D01*
X026250Y013894D02*
X027113Y013894D01*
X026163Y013007D02*
X016053Y013007D01*
X016053Y012909D02*
X026163Y012909D01*
X026163Y012810D02*
X016053Y012810D01*
X016053Y012712D02*
X026163Y012712D01*
X026163Y012613D02*
X021667Y012613D01*
X021632Y012648D02*
X020035Y012648D01*
X019935Y012549D01*
X019935Y010951D01*
X020035Y010852D01*
X021632Y010852D01*
X021732Y010951D01*
X021732Y012549D01*
X021632Y012648D01*
X021732Y012515D02*
X026097Y012515D01*
X025987Y012416D02*
X024778Y012416D01*
X024783Y012415D02*
X024705Y012440D01*
X024624Y012453D01*
X024542Y012453D01*
X024462Y012440D01*
X024384Y012415D01*
X024311Y012378D01*
X024245Y012330D01*
X024187Y012272D01*
X024148Y012219D01*
X024572Y011974D01*
X024817Y012398D01*
X024783Y012415D01*
X024771Y012318D02*
X024840Y012318D01*
X024934Y012318D02*
X025910Y012318D01*
X025869Y012219D02*
X025018Y012219D01*
X025069Y012121D02*
X025843Y012121D01*
X025843Y012022D02*
X025096Y012022D01*
X025103Y011924D02*
X025851Y011924D01*
X025440Y011431D02*
X027113Y011431D01*
X027113Y011333D02*
X025481Y011333D01*
X025522Y011234D02*
X027113Y011234D01*
X027113Y011136D02*
X025523Y011136D01*
X025523Y011037D02*
X027113Y011037D01*
X027113Y010939D02*
X025490Y010939D01*
X025449Y010840D02*
X027113Y010840D01*
X027113Y010742D02*
X025364Y010742D01*
X025231Y010643D02*
X027113Y010643D01*
X027113Y010545D02*
X024234Y010545D01*
X024424Y010643D02*
X024734Y010643D01*
X024602Y010742D02*
X024522Y010742D01*
X023932Y010545D02*
X021262Y010545D01*
X021342Y010512D02*
X021012Y010648D01*
X020655Y010648D01*
X020324Y010512D01*
X020072Y010259D01*
X019935Y009929D01*
X019935Y009571D01*
X020072Y009241D01*
X020324Y008988D01*
X020655Y008852D01*
X021012Y008852D01*
X021342Y008988D01*
X021595Y009241D01*
X021732Y009571D01*
X021732Y009929D01*
X021595Y010259D01*
X021342Y010512D01*
X021407Y010446D02*
X027113Y010446D01*
X027113Y010348D02*
X021506Y010348D01*
X021599Y010249D02*
X027113Y010249D01*
X027113Y010151D02*
X021640Y010151D01*
X021680Y010052D02*
X027113Y010052D01*
X027113Y009954D02*
X025080Y009954D01*
X024991Y009991D02*
X024776Y009991D01*
X024577Y009909D01*
X024426Y009757D01*
X021732Y009757D01*
X021732Y009855D02*
X024524Y009855D01*
X024426Y009757D02*
X024343Y009558D01*
X024343Y009344D01*
X024426Y009145D01*
X024577Y008993D01*
X024776Y008911D01*
X024991Y008911D01*
X025189Y008993D01*
X025341Y009145D01*
X025423Y009344D01*
X025423Y009558D01*
X025341Y009757D01*
X027113Y009757D01*
X027113Y009855D02*
X025242Y009855D01*
X025189Y009909D02*
X024991Y009991D01*
X025189Y009909D02*
X025341Y009757D01*
X025382Y009658D02*
X027113Y009658D01*
X027113Y009560D02*
X025423Y009560D01*
X025423Y009461D02*
X027113Y009461D01*
X027113Y009363D02*
X025423Y009363D01*
X025391Y009264D02*
X027113Y009264D01*
X027113Y009166D02*
X025350Y009166D01*
X025264Y009067D02*
X027113Y009067D01*
X027113Y008969D02*
X025131Y008969D01*
X024636Y008969D02*
X021295Y008969D01*
X021421Y009067D02*
X024503Y009067D01*
X024417Y009166D02*
X021520Y009166D01*
X021605Y009264D02*
X024376Y009264D01*
X024343Y009363D02*
X021645Y009363D01*
X021686Y009461D02*
X024343Y009461D01*
X024344Y009560D02*
X021727Y009560D01*
X021732Y009658D02*
X024385Y009658D01*
X024687Y009954D02*
X021721Y009954D01*
X021024Y010643D02*
X023743Y010643D01*
X023645Y010742D02*
X018040Y010742D01*
X018030Y010728D02*
X018078Y010794D01*
X018115Y010867D01*
X018141Y010945D01*
X018153Y011026D01*
X018153Y011108D01*
X018141Y011189D01*
X018115Y011267D01*
X018098Y011301D01*
X017674Y011056D01*
X017919Y010632D01*
X017972Y010670D01*
X018030Y010728D01*
X017935Y010643D02*
X020643Y010643D01*
X020405Y010545D02*
X016053Y010545D01*
X016053Y010643D02*
X016485Y010643D01*
X016428Y010667D02*
X016626Y010585D01*
X016841Y010585D01*
X017040Y010667D01*
X017192Y010819D01*
X017207Y010855D01*
X017592Y011078D01*
X017622Y011026D01*
X017198Y010781D01*
X017237Y010728D01*
X017295Y010670D01*
X017361Y010622D01*
X017434Y010585D01*
X017512Y010560D01*
X017592Y010547D01*
X017674Y010547D01*
X017755Y010560D01*
X017833Y010585D01*
X017867Y010602D01*
X017622Y011026D01*
X017674Y011056D01*
X017644Y011108D01*
X018068Y011353D01*
X018030Y011406D01*
X017972Y011464D01*
X017906Y011512D01*
X017833Y011549D01*
X017755Y011574D01*
X017674Y011587D01*
X017592Y011587D01*
X017543Y011579D01*
X017591Y011627D01*
X017673Y011826D01*
X017673Y012040D01*
X017591Y012239D01*
X017439Y012391D01*
X017241Y012473D01*
X017026Y012473D01*
X016827Y012391D01*
X016676Y012239D01*
X016593Y012040D01*
X016593Y011826D01*
X016660Y011665D01*
X016626Y011665D01*
X016428Y011583D01*
X016276Y011431D01*
X016194Y011232D01*
X016194Y011018D01*
X016276Y010819D01*
X016428Y010667D01*
X016353Y010742D02*
X016053Y010742D01*
X016053Y010840D02*
X016267Y010840D01*
X016226Y010939D02*
X016053Y010939D01*
X016053Y011037D02*
X016194Y011037D01*
X016194Y011136D02*
X016053Y011136D01*
X016053Y011234D02*
X016195Y011234D01*
X016235Y011333D02*
X016053Y011333D01*
X016053Y011431D02*
X016277Y011431D01*
X016375Y011530D02*
X016053Y011530D01*
X016053Y011628D02*
X016538Y011628D01*
X016634Y011727D02*
X016053Y011727D01*
X016053Y011825D02*
X016593Y011825D01*
X016593Y011924D02*
X016053Y011924D01*
X016053Y012022D02*
X016593Y012022D01*
X016627Y012121D02*
X016053Y012121D01*
X016053Y012219D02*
X016668Y012219D01*
X016755Y012318D02*
X016053Y012318D01*
X016053Y012416D02*
X016889Y012416D01*
X017377Y012416D02*
X019935Y012416D01*
X019935Y012318D02*
X017512Y012318D01*
X017599Y012219D02*
X019935Y012219D01*
X019935Y012121D02*
X017640Y012121D01*
X017673Y012022D02*
X019935Y012022D01*
X019935Y011924D02*
X017673Y011924D01*
X017673Y011825D02*
X019935Y011825D01*
X019935Y011727D02*
X017632Y011727D01*
X017592Y011628D02*
X019935Y011628D01*
X019935Y011530D02*
X017870Y011530D01*
X018004Y011431D02*
X019935Y011431D01*
X019935Y011333D02*
X018034Y011333D01*
X017983Y011234D02*
X017863Y011234D01*
X017813Y011136D02*
X017693Y011136D01*
X017685Y011037D02*
X017642Y011037D01*
X017616Y011037D02*
X017522Y011037D01*
X017472Y010939D02*
X017352Y010939D01*
X017301Y010840D02*
X017200Y010840D01*
X017227Y010742D02*
X017114Y010742D01*
X016982Y010643D02*
X017332Y010643D01*
X017729Y010840D02*
X017799Y010840D01*
X017786Y010742D02*
X017856Y010742D01*
X017843Y010643D02*
X017912Y010643D01*
X018102Y010840D02*
X023593Y010840D01*
X023552Y010939D02*
X021719Y010939D01*
X021732Y011037D02*
X023543Y011037D01*
X023543Y011136D02*
X021732Y011136D01*
X021732Y011234D02*
X023568Y011234D01*
X023609Y011333D02*
X021732Y011333D01*
X021732Y011431D02*
X023684Y011431D01*
X023790Y011530D02*
X021732Y011530D01*
X021732Y011628D02*
X024162Y011628D01*
X024105Y011727D02*
X021732Y011727D01*
X021732Y011825D02*
X024074Y011825D01*
X024063Y011924D02*
X021732Y011924D01*
X021732Y012022D02*
X024071Y012022D01*
X024098Y012121D02*
X021732Y012121D01*
X021732Y012219D02*
X024149Y012219D01*
X024198Y012121D02*
X024318Y012121D01*
X024368Y012022D02*
X024488Y012022D01*
X024539Y011924D02*
X024543Y011924D01*
X024613Y011924D02*
X024659Y011924D01*
X024670Y012022D02*
X024600Y012022D01*
X024657Y012121D02*
X024727Y012121D01*
X024714Y012219D02*
X024783Y012219D01*
X024830Y011825D02*
X024710Y011825D01*
X024880Y011727D02*
X025000Y011727D01*
X024389Y012416D02*
X021732Y012416D01*
X021732Y012318D02*
X024233Y012318D01*
X020259Y010446D02*
X016149Y010446D01*
X016247Y010348D02*
X020161Y010348D01*
X020068Y010249D02*
X016346Y010249D01*
X016444Y010151D02*
X020027Y010151D01*
X019986Y010052D02*
X016543Y010052D01*
X017030Y009954D02*
X019945Y009954D01*
X019935Y009658D02*
X017332Y009658D01*
X017373Y009560D02*
X019940Y009560D01*
X019980Y009461D02*
X017373Y009461D01*
X017373Y009363D02*
X020021Y009363D01*
X020062Y009264D02*
X017341Y009264D01*
X017300Y009166D02*
X020147Y009166D01*
X020245Y009067D02*
X017214Y009067D01*
X017081Y008969D02*
X020371Y008969D01*
X020609Y008870D02*
X015690Y008870D01*
X015876Y008772D02*
X025791Y008772D01*
X025674Y008673D02*
X015993Y008673D01*
X016087Y008575D02*
X025580Y008575D01*
X025523Y008476D02*
X023094Y008476D01*
X023139Y008458D02*
X022941Y008540D01*
X022726Y008540D01*
X022527Y008458D01*
X022376Y008306D01*
X022293Y008107D01*
X022293Y007893D01*
X022376Y007694D01*
X022527Y007542D01*
X022726Y007460D01*
X022941Y007460D01*
X023139Y007542D01*
X023291Y007694D01*
X023373Y007893D01*
X023373Y008107D01*
X023291Y008306D01*
X023139Y008458D01*
X023219Y008378D02*
X025466Y008378D01*
X025428Y008279D02*
X023302Y008279D01*
X023343Y008181D02*
X025411Y008181D01*
X025393Y008082D02*
X023373Y008082D01*
X023373Y007984D02*
X025382Y007984D01*
X025399Y007885D02*
X023370Y007885D01*
X023330Y007787D02*
X025416Y007787D01*
X025434Y007688D02*
X023285Y007688D01*
X023187Y007590D02*
X025485Y007590D01*
X025542Y007491D02*
X023017Y007491D01*
X022650Y007491D02*
X021976Y007491D01*
X021940Y007419D02*
X022171Y007881D01*
X022112Y008058D01*
X021946Y008142D01*
X021769Y008083D01*
X021731Y008008D01*
X021694Y008083D01*
X021517Y008142D01*
X021412Y008089D01*
X021312Y008189D01*
X021288Y008213D01*
X021180Y008321D01*
X020994Y008321D01*
X020927Y008254D01*
X020862Y008189D01*
X020862Y007730D01*
X020831Y007730D01*
X020732Y007828D01*
X020466Y007828D01*
X020542Y007904D01*
X020542Y008090D01*
X020444Y008189D01*
X020387Y008245D01*
X020312Y008321D01*
X019929Y008321D01*
X019851Y008243D01*
X019797Y008189D01*
X019776Y008168D01*
X019698Y008090D01*
X019698Y007805D01*
X019704Y007800D01*
X019698Y007795D01*
X019698Y007510D01*
X019797Y007412D01*
X019929Y007280D01*
X020312Y007280D01*
X020380Y007348D01*
X020448Y007280D01*
X020732Y007280D01*
X020765Y007312D01*
X020797Y007280D01*
X021377Y007280D01*
X021509Y007412D01*
X021509Y007447D01*
X021523Y007419D01*
X021548Y007345D01*
X021564Y007337D01*
X021572Y007321D01*
X021645Y007297D01*
X021714Y007262D01*
X021731Y007268D01*
X021749Y007262D01*
X021818Y007297D01*
X021891Y007321D01*
X021899Y007337D01*
X021915Y007345D01*
X021940Y007419D01*
X021931Y007393D02*
X025598Y007393D01*
X025712Y007294D02*
X021814Y007294D01*
X021649Y007294D02*
X021391Y007294D01*
X021490Y007393D02*
X021532Y007393D01*
X022026Y007590D02*
X022480Y007590D01*
X022381Y007688D02*
X022075Y007688D01*
X022124Y007787D02*
X022337Y007787D01*
X022296Y007885D02*
X022170Y007885D01*
X022137Y007984D02*
X022293Y007984D01*
X022293Y008082D02*
X022064Y008082D01*
X022324Y008181D02*
X021320Y008181D01*
X021312Y008189D02*
X021312Y008189D01*
X021221Y008279D02*
X022365Y008279D01*
X022448Y008378D02*
X019219Y008378D01*
X019291Y008306D02*
X019139Y008458D01*
X018941Y008540D01*
X018726Y008540D01*
X018527Y008458D01*
X018376Y008306D01*
X018293Y008107D01*
X018293Y007893D01*
X018376Y007694D01*
X018527Y007542D01*
X018726Y007460D01*
X018941Y007460D01*
X019139Y007542D01*
X019291Y007694D01*
X019373Y007893D01*
X019373Y008107D01*
X019291Y008306D01*
X019302Y008279D02*
X019887Y008279D01*
X019797Y008189D02*
X019797Y008189D01*
X019789Y008181D02*
X019343Y008181D01*
X019373Y008082D02*
X019698Y008082D01*
X019698Y007984D02*
X019373Y007984D01*
X019370Y007885D02*
X019698Y007885D01*
X019698Y007787D02*
X019330Y007787D01*
X019285Y007688D02*
X019698Y007688D01*
X019698Y007590D02*
X019187Y007590D01*
X019017Y007491D02*
X019717Y007491D01*
X019816Y007393D02*
X016068Y007393D01*
X016125Y007491D02*
X018650Y007491D01*
X018480Y007590D02*
X016182Y007590D01*
X016233Y007688D02*
X018381Y007688D01*
X018337Y007787D02*
X016250Y007787D01*
X016268Y007885D02*
X018296Y007885D01*
X018293Y007984D02*
X016285Y007984D01*
X016273Y008082D02*
X018293Y008082D01*
X018324Y008181D02*
X016256Y008181D01*
X016239Y008279D02*
X018365Y008279D01*
X018448Y008378D02*
X016201Y008378D01*
X016144Y008476D02*
X018573Y008476D01*
X019094Y008476D02*
X022573Y008476D01*
X021769Y008082D02*
X021694Y008082D01*
X020953Y008279D02*
X020353Y008279D01*
X020444Y008189D02*
X020444Y008189D01*
X020451Y008181D02*
X020862Y008181D01*
X020862Y008082D02*
X020542Y008082D01*
X020542Y007984D02*
X020862Y007984D01*
X020862Y007885D02*
X020524Y007885D01*
X020774Y007787D02*
X020862Y007787D01*
X020782Y007294D02*
X020747Y007294D01*
X020433Y007294D02*
X020326Y007294D01*
X019914Y007294D02*
X015955Y007294D01*
X014580Y008575D02*
X014553Y008575D01*
X014553Y008673D02*
X014674Y008673D01*
X014791Y008772D02*
X014553Y008772D01*
X014553Y008870D02*
X014977Y008870D01*
X017673Y010939D02*
X017742Y010939D01*
X018139Y010939D02*
X019947Y010939D01*
X019935Y011037D02*
X018153Y011037D01*
X018149Y011136D02*
X019935Y011136D01*
X019935Y011234D02*
X018126Y011234D01*
X019935Y012515D02*
X016053Y012515D01*
X016053Y012613D02*
X020000Y012613D01*
X019366Y013303D02*
X016053Y013303D01*
X016053Y013401D02*
X019196Y013401D01*
X019025Y013500D02*
X016053Y013500D01*
X016053Y013599D02*
X018854Y013599D01*
X018684Y013697D02*
X016053Y013697D01*
X016053Y013796D02*
X018513Y013796D01*
X018342Y013894D02*
X016053Y013894D01*
X016053Y013993D02*
X018203Y013993D01*
X018176Y014091D02*
X016053Y014091D01*
X016053Y014190D02*
X018219Y014190D01*
X018276Y014288D02*
X016053Y014288D01*
X016053Y014387D02*
X018333Y014387D01*
X015613Y014190D02*
X015569Y014190D01*
X015613Y014091D02*
X015470Y014091D01*
X015613Y013993D02*
X015276Y013993D01*
X015613Y016948D02*
X014553Y016948D01*
X014553Y017046D02*
X015613Y017046D01*
X015613Y017145D02*
X014553Y017145D01*
X014553Y017243D02*
X015613Y017243D01*
X015613Y017342D02*
X014553Y017342D01*
X014553Y017440D02*
X015613Y017440D01*
X015613Y017539D02*
X014553Y017539D01*
X014553Y017637D02*
X015613Y017637D01*
X015613Y017736D02*
X014553Y017736D01*
X014553Y017834D02*
X015613Y017834D01*
X015613Y017933D02*
X014553Y017933D01*
X014553Y018031D02*
X015613Y018031D01*
X015613Y018130D02*
X014553Y018130D01*
X014553Y018228D02*
X015613Y018228D01*
X015613Y018327D02*
X014553Y018327D01*
X014553Y018425D02*
X015613Y018425D01*
X015613Y018524D02*
X014553Y018524D01*
X014553Y018622D02*
X015613Y018622D01*
X015613Y018721D02*
X014553Y018721D01*
X014553Y018819D02*
X015613Y018819D01*
X015613Y018918D02*
X014553Y018918D01*
X014553Y019016D02*
X015613Y019016D01*
X015637Y019115D02*
X014553Y019115D01*
X014553Y019213D02*
X015735Y019213D01*
X015834Y019312D02*
X014553Y019312D01*
X014553Y019410D02*
X015932Y019410D01*
X016031Y019509D02*
X014553Y019509D01*
X014553Y019607D02*
X016129Y019607D01*
X016228Y019706D02*
X014553Y019706D01*
X014553Y019804D02*
X016326Y019804D01*
X016425Y019903D02*
X014553Y019903D01*
X014553Y020001D02*
X016523Y020001D01*
X016653Y019509D02*
X019150Y019509D01*
X018980Y019410D02*
X016554Y019410D01*
X016456Y019312D02*
X018881Y019312D01*
X018837Y019213D02*
X016357Y019213D01*
X016259Y019115D02*
X018796Y019115D01*
X018793Y019016D02*
X016160Y019016D01*
X016062Y018918D02*
X018793Y018918D01*
X018824Y018819D02*
X016053Y018819D01*
X016053Y018721D02*
X018865Y018721D01*
X018948Y018622D02*
X016053Y018622D01*
X016053Y018524D02*
X019073Y018524D01*
X019333Y019000D02*
X019833Y019500D01*
X019613Y020986D02*
X019004Y020986D01*
X019182Y021085D02*
X019485Y021085D01*
X019387Y021183D02*
X019280Y021183D01*
X019327Y021282D02*
X019339Y021282D01*
X016813Y018425D02*
X016053Y018425D01*
X016053Y018327D02*
X016714Y018327D01*
X016651Y018228D02*
X016053Y018228D01*
X016053Y018130D02*
X016610Y018130D01*
X016593Y018031D02*
X016053Y018031D01*
X016053Y017933D02*
X016593Y017933D01*
X016610Y017834D02*
X016053Y017834D01*
X016053Y017736D02*
X016651Y017736D01*
X016715Y017637D02*
X016053Y017637D01*
X016053Y017539D02*
X016813Y017539D01*
X020303Y017539D02*
X020363Y017539D01*
X020363Y017637D02*
X020303Y017637D01*
X020303Y017736D02*
X020363Y017736D01*
X020363Y017834D02*
X020303Y017834D01*
X020303Y017933D02*
X020363Y017933D01*
X020363Y017440D02*
X020303Y017440D01*
X020303Y017342D02*
X020363Y017342D01*
X020363Y017243D02*
X020303Y017243D01*
X020303Y017145D02*
X020363Y017145D01*
X020363Y017046D02*
X020303Y017046D01*
X020588Y017046D02*
X021024Y017046D01*
X020925Y017145D02*
X020713Y017145D01*
X020786Y017243D02*
X020855Y017243D01*
X024853Y017539D02*
X025613Y017539D01*
X025613Y017637D02*
X024952Y017637D01*
X025016Y017736D02*
X025613Y017736D01*
X025613Y017834D02*
X025057Y017834D01*
X025073Y017933D02*
X025613Y017933D01*
X025613Y018031D02*
X025073Y018031D01*
X025057Y018130D02*
X025613Y018130D01*
X025613Y018228D02*
X025016Y018228D01*
X024953Y018327D02*
X025613Y018327D01*
X025613Y018425D02*
X024854Y018425D01*
X025242Y019903D02*
X027113Y019903D01*
X027113Y020001D02*
X025143Y020001D01*
X025045Y020100D02*
X026059Y020100D01*
X025827Y020198D02*
X024946Y020198D01*
X026608Y020100D02*
X027113Y020100D01*
X027113Y020198D02*
X026840Y020198D01*
X026957Y020297D02*
X027113Y020297D01*
X027113Y020395D02*
X027069Y020395D01*
X026232Y014978D02*
X026053Y014978D01*
X026053Y014879D02*
X026131Y014879D01*
X026058Y014781D02*
X026053Y014781D01*
X025977Y008870D02*
X021057Y008870D01*
X026690Y008870D02*
X027113Y008870D01*
X027113Y008772D02*
X026876Y008772D01*
X026993Y008673D02*
X027113Y008673D01*
X027113Y008575D02*
X027087Y008575D01*
M02*
