G75*
G70*
%OFA0B0*%
%FSLAX24Y24*%
%IPPOS*%
%LPD*%
%AMOC8*
5,1,8,0,0,1.08239X$1,22.5*
%
%ADD10C,0.0100*%
%ADD11C,0.1457*%
%ADD12R,0.1457X0.1457*%
%ADD13R,0.1457X0.1457*%
%ADD14C,0.0740*%
%ADD15C,0.0000*%
%ADD16C,0.0300*%
D10*
X014333Y008000D02*
X014333Y021000D01*
X014553Y020471D02*
X014602Y020386D01*
X014856Y020173D01*
X015168Y020060D01*
X015499Y020060D01*
X015811Y020173D01*
X016065Y020386D01*
X016065Y020386D01*
X016065Y020386D01*
X016230Y020674D01*
X016288Y021000D01*
X016230Y021326D01*
X016230Y021326D01*
X016065Y021614D01*
X015866Y021780D01*
X018365Y021780D01*
X018293Y021607D01*
X018293Y021393D01*
X018376Y021194D01*
X018527Y021042D01*
X018726Y020960D01*
X018941Y020960D01*
X019139Y021042D01*
X019291Y021194D01*
X019333Y021296D01*
X019376Y021194D01*
X019527Y021042D01*
X019726Y020960D01*
X019941Y020960D01*
X020139Y021042D01*
X020291Y021194D01*
X020333Y021296D01*
X020376Y021194D01*
X020527Y021042D01*
X020726Y020960D01*
X020941Y020960D01*
X021139Y021042D01*
X021291Y021194D01*
X021333Y021296D01*
X021376Y021194D01*
X021527Y021042D01*
X021726Y020960D01*
X021941Y020960D01*
X022139Y021042D01*
X022291Y021194D01*
X022344Y021322D01*
X022351Y021300D01*
X022389Y021227D01*
X022437Y021161D01*
X022495Y021103D01*
X022561Y021055D01*
X022634Y021018D01*
X022712Y020993D01*
X022783Y020981D01*
X022783Y021450D01*
X022883Y021450D01*
X022883Y020981D01*
X022955Y020993D01*
X023033Y021018D01*
X023106Y021055D01*
X023172Y021103D01*
X023230Y021161D01*
X023278Y021227D01*
X023315Y021300D01*
X023341Y021378D01*
X023352Y021450D01*
X022883Y021450D01*
X022883Y021550D01*
X023352Y021550D01*
X023341Y021622D01*
X023315Y021700D01*
X023278Y021773D01*
X023273Y021780D01*
X025801Y021780D01*
X025602Y021614D01*
X025602Y021614D01*
X025602Y021614D01*
X025436Y021326D01*
X025379Y021000D01*
X025436Y020674D01*
X025436Y020674D01*
X025602Y020386D01*
X025856Y020173D01*
X026168Y020060D01*
X026246Y020060D01*
X026499Y020060D01*
X026811Y020173D01*
X027065Y020386D01*
X027065Y020386D01*
X027065Y020386D01*
X027113Y020471D01*
X027113Y008529D01*
X027065Y008614D01*
X026811Y008827D01*
X026499Y008940D01*
X026168Y008940D01*
X025856Y008827D01*
X025602Y008614D01*
X025602Y008614D01*
X025602Y008614D01*
X025436Y008326D01*
X025379Y008000D01*
X025436Y007674D01*
X025436Y007674D01*
X025602Y007386D01*
X025801Y007220D01*
X015866Y007220D01*
X016065Y007386D01*
X016065Y007386D01*
X016065Y007386D01*
X016230Y007674D01*
X016288Y008000D01*
X016230Y008326D01*
X016230Y008326D01*
X016065Y008614D01*
X015811Y008827D01*
X015499Y008940D01*
X015168Y008940D01*
X014856Y008827D01*
X014602Y008614D01*
X014602Y008614D01*
X014602Y008614D01*
X014553Y008529D01*
X014553Y020471D01*
X014553Y020395D02*
X014597Y020395D01*
X014602Y020386D02*
X014602Y020386D01*
X014553Y020297D02*
X014709Y020297D01*
X014827Y020198D02*
X014553Y020198D01*
X014553Y020100D02*
X015059Y020100D01*
X014856Y020173D02*
X014856Y020173D01*
X014553Y020001D02*
X027113Y020001D01*
X027113Y019903D02*
X014553Y019903D01*
X014553Y019804D02*
X027113Y019804D01*
X027113Y019706D02*
X014553Y019706D01*
X014553Y019607D02*
X027113Y019607D01*
X027113Y019509D02*
X022517Y019509D01*
X022441Y019540D02*
X022226Y019540D01*
X022027Y019458D01*
X021876Y019306D01*
X021840Y019220D01*
X021492Y019220D01*
X021027Y018754D01*
X020941Y018790D01*
X020726Y018790D01*
X020527Y018708D01*
X020376Y018556D01*
X020293Y018357D01*
X020293Y018143D01*
X020336Y018040D01*
X020226Y018040D01*
X020027Y017958D01*
X019876Y017806D01*
X019793Y017607D01*
X019793Y017393D01*
X019876Y017194D01*
X020027Y017042D01*
X020226Y016960D01*
X020441Y016960D01*
X020639Y017042D01*
X020791Y017194D01*
X020833Y017296D01*
X020876Y017194D01*
X021013Y017056D01*
X021013Y016467D01*
X019720Y015173D01*
X019107Y015527D01*
X018971Y015491D01*
X018172Y014107D01*
X018208Y013971D01*
X019592Y013173D01*
X019728Y013209D01*
X020527Y014593D01*
X020490Y014729D01*
X020294Y014842D01*
X021605Y016153D01*
X021653Y016270D01*
X021653Y017056D01*
X021791Y017194D01*
X021873Y017393D01*
X021873Y017607D01*
X021791Y017806D01*
X021639Y017958D01*
X021441Y018040D01*
X021331Y018040D01*
X021373Y018143D01*
X021373Y018357D01*
X021338Y018443D01*
X021674Y018780D01*
X021840Y018780D01*
X021876Y018694D01*
X022027Y018542D01*
X022226Y018460D01*
X022441Y018460D01*
X022639Y018542D01*
X022791Y018694D01*
X022873Y018893D01*
X022873Y019107D01*
X022791Y019306D01*
X022639Y019458D01*
X022441Y019540D01*
X022687Y019410D02*
X027113Y019410D01*
X027113Y019312D02*
X022785Y019312D01*
X022830Y019213D02*
X027113Y019213D01*
X027113Y019115D02*
X022870Y019115D01*
X022873Y019016D02*
X027113Y019016D01*
X027113Y018918D02*
X022873Y018918D01*
X022843Y018819D02*
X027113Y018819D01*
X027113Y018721D02*
X022802Y018721D01*
X022719Y018622D02*
X027113Y018622D01*
X027113Y018524D02*
X022594Y018524D01*
X022073Y018524D02*
X021418Y018524D01*
X021345Y018425D02*
X024213Y018425D01*
X024227Y018440D02*
X024076Y018288D01*
X023993Y018089D01*
X023993Y017895D01*
X023868Y017769D01*
X023778Y017679D01*
X023729Y017562D01*
X023729Y017434D01*
X023729Y016190D01*
X023540Y016112D01*
X023288Y015859D01*
X023151Y015529D01*
X023151Y015171D01*
X023288Y014841D01*
X023540Y014588D01*
X023871Y014452D01*
X024228Y014452D01*
X024558Y014588D01*
X024811Y014841D01*
X024948Y015171D01*
X024948Y015529D01*
X024811Y015859D01*
X024558Y016112D01*
X024369Y016190D01*
X024369Y017366D01*
X024446Y017442D01*
X024641Y017442D01*
X024839Y017524D01*
X024991Y017676D01*
X025073Y017875D01*
X025073Y018089D01*
X024991Y018288D01*
X024839Y018440D01*
X024641Y018522D01*
X024426Y018522D01*
X024227Y018440D01*
X024114Y018327D02*
X021373Y018327D01*
X021373Y018228D02*
X024051Y018228D01*
X024010Y018130D02*
X021368Y018130D01*
X021462Y018031D02*
X023993Y018031D01*
X023993Y017933D02*
X021664Y017933D01*
X021763Y017834D02*
X023933Y017834D01*
X023868Y017769D02*
X023868Y017769D01*
X023834Y017736D02*
X021820Y017736D01*
X021861Y017637D02*
X023761Y017637D01*
X023729Y017539D02*
X021873Y017539D01*
X021873Y017440D02*
X023729Y017440D01*
X023729Y017342D02*
X021852Y017342D01*
X021811Y017243D02*
X023729Y017243D01*
X023729Y017145D02*
X021742Y017145D01*
X021653Y017046D02*
X023729Y017046D01*
X023729Y016948D02*
X021653Y016948D01*
X021653Y016849D02*
X023729Y016849D01*
X023729Y016751D02*
X021653Y016751D01*
X021653Y016652D02*
X023729Y016652D01*
X023729Y016554D02*
X021653Y016554D01*
X021653Y016455D02*
X023729Y016455D01*
X023729Y016357D02*
X021653Y016357D01*
X021648Y016258D02*
X023729Y016258D01*
X023656Y016160D02*
X021607Y016160D01*
X021513Y016061D02*
X023490Y016061D01*
X023391Y015963D02*
X021414Y015963D01*
X021316Y015864D02*
X023293Y015864D01*
X023249Y015766D02*
X021217Y015766D01*
X021119Y015667D02*
X023208Y015667D01*
X023168Y015569D02*
X021020Y015569D01*
X020922Y015470D02*
X022461Y015470D01*
X022560Y015527D02*
X021176Y014729D01*
X021140Y014593D01*
X021939Y013209D01*
X021997Y013193D01*
X021997Y012769D01*
X022046Y012652D01*
X023543Y011154D01*
X023543Y010960D01*
X023626Y010761D01*
X023777Y010609D01*
X023976Y010527D01*
X024191Y010527D01*
X024389Y010609D01*
X024541Y010761D01*
X024553Y010791D01*
X024677Y010667D01*
X024763Y010632D01*
X024763Y009986D01*
X024577Y009909D01*
X024426Y009757D01*
X021732Y009757D01*
X021732Y009855D02*
X024524Y009855D01*
X024426Y009757D02*
X024343Y009558D01*
X024343Y009344D01*
X024426Y009145D01*
X024577Y008993D01*
X024776Y008911D01*
X024991Y008911D01*
X025189Y008993D01*
X025341Y009145D01*
X025423Y009344D01*
X025423Y009558D01*
X025341Y009757D01*
X027113Y009757D01*
X027113Y009855D02*
X025242Y009855D01*
X025203Y009895D02*
X025203Y010632D01*
X025289Y010667D01*
X025441Y010819D01*
X025523Y011018D01*
X025523Y011232D01*
X025441Y011431D01*
X025289Y011583D01*
X025090Y011665D01*
X025057Y011665D01*
X025123Y011826D01*
X025123Y012040D01*
X025041Y012239D01*
X024889Y012391D01*
X024691Y012473D01*
X024476Y012473D01*
X024277Y012391D01*
X024126Y012239D01*
X024043Y012040D01*
X024043Y011826D01*
X024126Y011627D01*
X024146Y011607D01*
X023996Y011607D01*
X022637Y012966D01*
X022637Y013497D01*
X023458Y013971D01*
X023495Y014107D01*
X022696Y015491D01*
X022560Y015527D01*
X022708Y015470D02*
X023151Y015470D01*
X023151Y015372D02*
X022765Y015372D01*
X022822Y015273D02*
X023151Y015273D01*
X023151Y015175D02*
X022879Y015175D01*
X022935Y015076D02*
X023190Y015076D01*
X023231Y014978D02*
X022992Y014978D01*
X023049Y014879D02*
X023272Y014879D01*
X023348Y014781D02*
X023106Y014781D01*
X023163Y014682D02*
X023447Y014682D01*
X023552Y014584D02*
X023220Y014584D01*
X023277Y014485D02*
X023790Y014485D01*
X023390Y014288D02*
X026212Y014288D01*
X026228Y014387D02*
X026383Y014387D01*
X026399Y014485D02*
X026508Y014485D01*
X026519Y014465D02*
X026103Y014225D01*
X026137Y014179D01*
X026195Y014121D01*
X026261Y014073D01*
X026334Y014036D01*
X026412Y014011D01*
X026492Y013998D01*
X026574Y013998D01*
X026655Y014011D01*
X026733Y014036D01*
X026759Y014049D01*
X026519Y014465D01*
X026481Y014532D01*
X026065Y014292D01*
X026051Y014318D01*
X026026Y014396D01*
X026013Y014477D01*
X026013Y014559D01*
X026026Y014640D01*
X026051Y014718D01*
X026089Y014790D01*
X026137Y014857D01*
X026195Y014915D01*
X026241Y014948D01*
X026481Y014532D01*
X026547Y014571D01*
X026307Y014986D01*
X026334Y015000D01*
X026412Y015025D01*
X026492Y015038D01*
X026574Y015038D01*
X026655Y015025D01*
X026733Y015000D01*
X026806Y014963D01*
X026872Y014915D01*
X026930Y014857D01*
X026963Y014811D01*
X026547Y014571D01*
X026586Y014504D01*
X027002Y014744D01*
X027015Y014718D01*
X027041Y014640D01*
X027053Y014559D01*
X027053Y014477D01*
X027041Y014396D01*
X027015Y014318D01*
X026978Y014245D01*
X026930Y014179D01*
X026872Y014121D01*
X026826Y014088D01*
X026586Y014504D01*
X026519Y014465D01*
X026553Y014485D02*
X026597Y014485D01*
X026570Y014584D02*
X026724Y014584D01*
X026740Y014682D02*
X026895Y014682D01*
X026911Y014781D02*
X027113Y014781D01*
X027113Y014879D02*
X026908Y014879D01*
X026777Y014978D02*
X027113Y014978D01*
X027113Y015076D02*
X024908Y015076D01*
X024948Y015175D02*
X027113Y015175D01*
X027113Y015273D02*
X024948Y015273D01*
X024948Y015372D02*
X027113Y015372D01*
X027113Y015470D02*
X024948Y015470D01*
X024931Y015569D02*
X027113Y015569D01*
X027113Y015667D02*
X024890Y015667D01*
X024850Y015766D02*
X027113Y015766D01*
X027113Y015864D02*
X024806Y015864D01*
X024707Y015963D02*
X027113Y015963D01*
X027113Y016061D02*
X024609Y016061D01*
X024443Y016160D02*
X027113Y016160D01*
X027113Y016258D02*
X024369Y016258D01*
X024369Y016357D02*
X027113Y016357D01*
X027113Y016455D02*
X024369Y016455D01*
X024369Y016554D02*
X027113Y016554D01*
X027113Y016652D02*
X024369Y016652D01*
X024369Y016751D02*
X027113Y016751D01*
X027113Y016849D02*
X024369Y016849D01*
X024369Y016948D02*
X027113Y016948D01*
X027113Y017046D02*
X024369Y017046D01*
X024369Y017145D02*
X027113Y017145D01*
X027113Y017243D02*
X024369Y017243D01*
X024369Y017342D02*
X027113Y017342D01*
X027113Y017440D02*
X024444Y017440D01*
X024853Y017539D02*
X027113Y017539D01*
X027113Y017637D02*
X024952Y017637D01*
X025016Y017736D02*
X027113Y017736D01*
X027113Y017834D02*
X025057Y017834D01*
X025073Y017933D02*
X027113Y017933D01*
X027113Y018031D02*
X025073Y018031D01*
X025057Y018130D02*
X027113Y018130D01*
X027113Y018228D02*
X025016Y018228D01*
X024953Y018327D02*
X027113Y018327D01*
X027113Y018425D02*
X024854Y018425D01*
X022333Y019000D02*
X021583Y019000D01*
X020833Y018250D01*
X020442Y018622D02*
X019719Y018622D01*
X019791Y018694D02*
X019639Y018542D01*
X019441Y018460D01*
X019226Y018460D01*
X019027Y018542D01*
X018876Y018694D01*
X018793Y018893D01*
X018793Y019107D01*
X018876Y019306D01*
X019027Y019458D01*
X019226Y019540D01*
X019441Y019540D01*
X019639Y019458D01*
X019791Y019306D01*
X019873Y019107D01*
X019873Y018893D01*
X019791Y018694D01*
X019802Y018721D02*
X020558Y018721D01*
X020362Y018524D02*
X019594Y018524D01*
X019843Y018819D02*
X021091Y018819D01*
X021190Y018918D02*
X019873Y018918D01*
X019873Y019016D02*
X021288Y019016D01*
X021387Y019115D02*
X019870Y019115D01*
X019830Y019213D02*
X021485Y019213D01*
X021881Y019312D02*
X019785Y019312D01*
X019687Y019410D02*
X021980Y019410D01*
X022150Y019509D02*
X019517Y019509D01*
X019150Y019509D02*
X014553Y019509D01*
X014553Y019410D02*
X018980Y019410D01*
X018881Y019312D02*
X014553Y019312D01*
X014553Y019213D02*
X018837Y019213D01*
X018796Y019115D02*
X014553Y019115D01*
X014553Y019016D02*
X018793Y019016D01*
X018793Y018918D02*
X014553Y018918D01*
X014553Y018819D02*
X018824Y018819D01*
X018865Y018721D02*
X014553Y018721D01*
X014553Y018622D02*
X018948Y018622D01*
X019073Y018524D02*
X014553Y018524D01*
X014553Y018425D02*
X016858Y018425D01*
X016861Y018427D02*
X016795Y018379D01*
X016737Y018321D01*
X016703Y018275D01*
X017119Y018035D01*
X017081Y017968D01*
X017147Y017929D01*
X016907Y017514D01*
X016934Y017500D01*
X017012Y017475D01*
X017092Y017462D01*
X017174Y017462D01*
X017255Y017475D01*
X017333Y017500D01*
X017406Y017537D01*
X017472Y017585D01*
X017530Y017643D01*
X017563Y017689D01*
X017147Y017929D01*
X017186Y017996D01*
X017602Y017756D01*
X017615Y017782D01*
X017641Y017860D01*
X017653Y017941D01*
X017653Y018023D01*
X017641Y018104D01*
X017615Y018182D01*
X017578Y018255D01*
X017530Y018321D01*
X017472Y018379D01*
X017426Y018412D01*
X017186Y017996D01*
X017119Y018035D01*
X017359Y018451D01*
X017333Y018464D01*
X017255Y018489D01*
X017174Y018502D01*
X017092Y018502D01*
X017012Y018489D01*
X016934Y018464D01*
X016861Y018427D01*
X016742Y018327D02*
X014553Y018327D01*
X014553Y018228D02*
X016784Y018228D01*
X016801Y018130D02*
X016955Y018130D01*
X016971Y018031D02*
X017117Y018031D01*
X017126Y018031D02*
X017206Y018031D01*
X017174Y018130D02*
X017263Y018130D01*
X017231Y018228D02*
X017320Y018228D01*
X017288Y018327D02*
X017377Y018327D01*
X017345Y018425D02*
X020321Y018425D01*
X020293Y018327D02*
X017524Y018327D01*
X017592Y018228D02*
X020293Y018228D01*
X020299Y018130D02*
X017632Y018130D01*
X017652Y018031D02*
X020204Y018031D01*
X020002Y017933D02*
X017652Y017933D01*
X017632Y017834D02*
X019904Y017834D01*
X019846Y017736D02*
X017483Y017736D01*
X017467Y017834D02*
X017313Y017834D01*
X017296Y017933D02*
X017149Y017933D01*
X017142Y017933D02*
X017060Y017933D01*
X017081Y017968D02*
X016841Y017552D01*
X016795Y017585D01*
X016737Y017643D01*
X016689Y017710D01*
X016651Y017782D01*
X016626Y017860D01*
X016613Y017941D01*
X016613Y018023D01*
X016626Y018104D01*
X016651Y018182D01*
X016665Y018208D01*
X017081Y017968D01*
X017092Y017834D02*
X017003Y017834D01*
X017036Y017736D02*
X016946Y017736D01*
X016979Y017637D02*
X016890Y017637D01*
X016922Y017539D02*
X014553Y017539D01*
X014553Y017637D02*
X016743Y017637D01*
X016675Y017736D02*
X014553Y017736D01*
X014553Y017834D02*
X016635Y017834D01*
X016615Y017933D02*
X014553Y017933D01*
X014553Y018031D02*
X016615Y018031D01*
X016634Y018130D02*
X014553Y018130D01*
X014553Y017440D02*
X019793Y017440D01*
X019793Y017539D02*
X017408Y017539D01*
X017524Y017637D02*
X019806Y017637D01*
X019814Y017342D02*
X014553Y017342D01*
X014553Y017243D02*
X019855Y017243D01*
X019925Y017145D02*
X014553Y017145D01*
X014553Y017046D02*
X020024Y017046D01*
X020643Y017046D02*
X021013Y017046D01*
X021013Y016948D02*
X014553Y016948D01*
X014553Y016849D02*
X021013Y016849D01*
X021013Y016751D02*
X014553Y016751D01*
X014553Y016652D02*
X021013Y016652D01*
X021013Y016554D02*
X014553Y016554D01*
X014553Y016455D02*
X021002Y016455D01*
X020903Y016357D02*
X014553Y016357D01*
X014553Y016258D02*
X020805Y016258D01*
X020706Y016160D02*
X018010Y016160D01*
X018126Y016112D02*
X017796Y016248D01*
X017439Y016248D01*
X017108Y016112D01*
X016856Y015859D01*
X016777Y015670D01*
X015966Y015670D01*
X015902Y015670D01*
X015902Y015670D01*
X015902Y015670D01*
X015839Y015644D01*
X015784Y015621D01*
X015729Y015566D01*
X015221Y015058D01*
X015026Y015058D01*
X014827Y014976D01*
X014676Y014824D01*
X014593Y014625D01*
X014593Y014411D01*
X014676Y014212D01*
X014827Y014060D01*
X015026Y013978D01*
X015241Y013978D01*
X015439Y014060D01*
X015591Y014212D01*
X015673Y014411D01*
X015673Y014605D01*
X016098Y015030D01*
X016777Y015030D01*
X016856Y014841D01*
X017108Y014588D01*
X017439Y014452D01*
X017796Y014452D01*
X018126Y014588D01*
X018379Y014841D01*
X018516Y015171D01*
X018516Y015529D01*
X018379Y015859D01*
X018126Y016112D01*
X018177Y016061D02*
X020608Y016061D01*
X020509Y015963D02*
X018275Y015963D01*
X018374Y015864D02*
X020411Y015864D01*
X020312Y015766D02*
X018418Y015766D01*
X018458Y015667D02*
X020214Y015667D01*
X020115Y015569D02*
X018499Y015569D01*
X018516Y015470D02*
X018959Y015470D01*
X018902Y015372D02*
X018516Y015372D01*
X018516Y015273D02*
X018845Y015273D01*
X018788Y015175D02*
X018516Y015175D01*
X018476Y015076D02*
X018731Y015076D01*
X018674Y014978D02*
X018435Y014978D01*
X018395Y014879D02*
X018617Y014879D01*
X018561Y014781D02*
X018318Y014781D01*
X018220Y014682D02*
X018504Y014682D01*
X018447Y014584D02*
X018114Y014584D01*
X017877Y014485D02*
X018390Y014485D01*
X018333Y014387D02*
X015663Y014387D01*
X015673Y014485D02*
X017358Y014485D01*
X017120Y014584D02*
X015673Y014584D01*
X015750Y014682D02*
X017015Y014682D01*
X016916Y014781D02*
X015848Y014781D01*
X015947Y014879D02*
X016840Y014879D01*
X016799Y014978D02*
X016045Y014978D01*
X015633Y015470D02*
X014553Y015470D01*
X014553Y015372D02*
X015534Y015372D01*
X015436Y015273D02*
X014553Y015273D01*
X014553Y015175D02*
X015337Y015175D01*
X015239Y015076D02*
X014553Y015076D01*
X014553Y014978D02*
X014832Y014978D01*
X014731Y014879D02*
X014553Y014879D01*
X014553Y014781D02*
X014658Y014781D01*
X014617Y014682D02*
X014553Y014682D01*
X014553Y014584D02*
X014593Y014584D01*
X014593Y014485D02*
X014553Y014485D01*
X014553Y014387D02*
X014603Y014387D01*
X014644Y014288D02*
X014553Y014288D01*
X014553Y014190D02*
X014698Y014190D01*
X014797Y014091D02*
X014553Y014091D01*
X014553Y013993D02*
X014991Y013993D01*
X015276Y013993D02*
X018203Y013993D01*
X018176Y014091D02*
X015470Y014091D01*
X015569Y014190D02*
X018219Y014190D01*
X018276Y014288D02*
X015623Y014288D01*
X014553Y013894D02*
X018342Y013894D01*
X018513Y013796D02*
X014553Y013796D01*
X014553Y013697D02*
X018684Y013697D01*
X018854Y013599D02*
X014553Y013599D01*
X014553Y013500D02*
X019025Y013500D01*
X019196Y013401D02*
X014553Y013401D01*
X014553Y013303D02*
X019366Y013303D01*
X019537Y013204D02*
X014553Y013204D01*
X014553Y013106D02*
X021997Y013106D01*
X021997Y013007D02*
X014553Y013007D01*
X014553Y012909D02*
X021997Y012909D01*
X021997Y012810D02*
X014553Y012810D01*
X014553Y012712D02*
X022021Y012712D01*
X022084Y012613D02*
X021667Y012613D01*
X021632Y012648D02*
X020035Y012648D01*
X019935Y012549D01*
X019935Y012070D01*
X019466Y012070D01*
X019332Y012204D01*
X019214Y012253D01*
X017577Y012253D01*
X017439Y012391D01*
X017241Y012473D01*
X017026Y012473D01*
X016827Y012391D01*
X016676Y012239D01*
X016593Y012040D01*
X016593Y011826D01*
X016660Y011665D01*
X016626Y011665D01*
X016428Y011583D01*
X016276Y011431D01*
X016258Y011387D01*
X015823Y011821D01*
X015873Y011942D01*
X015873Y012156D01*
X015791Y012355D01*
X015639Y012507D01*
X015441Y012589D01*
X015226Y012589D01*
X015027Y012507D01*
X014876Y012355D01*
X014793Y012156D01*
X014793Y011942D01*
X014876Y011743D01*
X015027Y011591D01*
X015226Y011509D01*
X015441Y011509D01*
X015492Y011530D01*
X015491Y011530D01*
X015492Y011530D02*
X016117Y010905D01*
X016240Y010905D01*
X016276Y010819D01*
X016428Y010667D01*
X016626Y010585D01*
X016841Y010585D01*
X017040Y010667D01*
X017163Y010791D01*
X017176Y010761D01*
X017327Y010609D01*
X017526Y010527D01*
X017741Y010527D01*
X017939Y010609D01*
X018091Y010761D01*
X018173Y010960D01*
X018173Y011174D01*
X018091Y011373D01*
X017939Y011525D01*
X017741Y011607D01*
X017571Y011607D01*
X017577Y011613D01*
X019018Y011613D01*
X019062Y011569D01*
X019152Y011479D01*
X019270Y011430D01*
X019935Y011430D01*
X019935Y010951D01*
X020035Y010852D01*
X021632Y010852D01*
X021732Y010951D01*
X021732Y012549D01*
X021632Y012648D01*
X021732Y012515D02*
X022183Y012515D01*
X022281Y012416D02*
X021732Y012416D01*
X021732Y012318D02*
X022380Y012318D01*
X022478Y012219D02*
X021732Y012219D01*
X021732Y012121D02*
X022577Y012121D01*
X022675Y012022D02*
X021732Y012022D01*
X021732Y011924D02*
X022774Y011924D01*
X022872Y011825D02*
X021732Y011825D01*
X021732Y011727D02*
X022971Y011727D01*
X023069Y011628D02*
X021732Y011628D01*
X021732Y011530D02*
X023168Y011530D01*
X023266Y011431D02*
X021732Y011431D01*
X021732Y011333D02*
X023365Y011333D01*
X023463Y011234D02*
X021732Y011234D01*
X021732Y011136D02*
X023543Y011136D01*
X023543Y011037D02*
X021732Y011037D01*
X021719Y010939D02*
X023552Y010939D01*
X023593Y010840D02*
X018124Y010840D01*
X018165Y010939D02*
X019947Y010939D01*
X019935Y011037D02*
X018173Y011037D01*
X018173Y011136D02*
X019935Y011136D01*
X019935Y011234D02*
X018148Y011234D01*
X018108Y011333D02*
X019935Y011333D01*
X019266Y011431D02*
X018032Y011431D01*
X017927Y011530D02*
X019101Y011530D01*
X019415Y012121D02*
X019935Y012121D01*
X019935Y012219D02*
X019295Y012219D01*
X019935Y012318D02*
X017512Y012318D01*
X017377Y012416D02*
X019935Y012416D01*
X019935Y012515D02*
X015619Y012515D01*
X015730Y012416D02*
X016889Y012416D01*
X016755Y012318D02*
X015806Y012318D01*
X015847Y012219D02*
X016668Y012219D01*
X016627Y012121D02*
X015873Y012121D01*
X015873Y012022D02*
X016593Y012022D01*
X016593Y011924D02*
X015866Y011924D01*
X015825Y011825D02*
X016593Y011825D01*
X016634Y011727D02*
X015917Y011727D01*
X016016Y011628D02*
X016538Y011628D01*
X016375Y011530D02*
X016114Y011530D01*
X016213Y011431D02*
X016277Y011431D01*
X016208Y011125D02*
X015333Y012000D01*
X015333Y012049D01*
X014841Y011825D02*
X014553Y011825D01*
X014553Y011727D02*
X014892Y011727D01*
X014990Y011628D02*
X014553Y011628D01*
X014553Y011530D02*
X015175Y011530D01*
X015591Y011431D02*
X014553Y011431D01*
X014553Y011333D02*
X015689Y011333D01*
X015788Y011234D02*
X014553Y011234D01*
X014553Y011136D02*
X015886Y011136D01*
X015985Y011037D02*
X014553Y011037D01*
X014553Y010939D02*
X016083Y010939D01*
X016267Y010840D02*
X014553Y010840D01*
X014553Y010742D02*
X016353Y010742D01*
X016485Y010643D02*
X014553Y010643D01*
X014553Y010545D02*
X017482Y010545D01*
X017293Y010643D02*
X016982Y010643D01*
X017114Y010742D02*
X017195Y010742D01*
X016734Y011125D02*
X016208Y011125D01*
X014801Y011924D02*
X014553Y011924D01*
X014553Y012022D02*
X014793Y012022D01*
X014793Y012121D02*
X014553Y012121D01*
X014553Y012219D02*
X014819Y012219D01*
X014860Y012318D02*
X014553Y012318D01*
X014553Y012416D02*
X014937Y012416D01*
X015047Y012515D02*
X014553Y012515D01*
X014553Y012613D02*
X020000Y012613D01*
X019711Y013204D02*
X021956Y013204D01*
X021884Y013303D02*
X019782Y013303D01*
X019839Y013401D02*
X021828Y013401D01*
X021771Y013500D02*
X019896Y013500D01*
X019953Y013599D02*
X021714Y013599D01*
X021657Y013697D02*
X020010Y013697D01*
X020067Y013796D02*
X021600Y013796D01*
X021543Y013894D02*
X020123Y013894D01*
X020180Y013993D02*
X021486Y013993D01*
X021430Y014091D02*
X020237Y014091D01*
X020294Y014190D02*
X021373Y014190D01*
X021316Y014288D02*
X020351Y014288D01*
X020408Y014387D02*
X021259Y014387D01*
X021202Y014485D02*
X020465Y014485D01*
X020521Y014584D02*
X021145Y014584D01*
X021164Y014682D02*
X020503Y014682D01*
X020400Y014781D02*
X021266Y014781D01*
X021437Y014879D02*
X020331Y014879D01*
X020429Y014978D02*
X021607Y014978D01*
X021778Y015076D02*
X020528Y015076D01*
X020626Y015175D02*
X021949Y015175D01*
X022119Y015273D02*
X020725Y015273D01*
X020823Y015372D02*
X022290Y015372D01*
X023334Y014387D02*
X026029Y014387D01*
X026013Y014485D02*
X024309Y014485D01*
X024546Y014584D02*
X026017Y014584D01*
X026040Y014682D02*
X024652Y014682D01*
X024750Y014781D02*
X026084Y014781D01*
X026159Y014879D02*
X024827Y014879D01*
X024867Y014978D02*
X026313Y014978D01*
X026280Y014879D02*
X026369Y014879D01*
X026337Y014781D02*
X026426Y014781D01*
X026394Y014682D02*
X026483Y014682D01*
X026451Y014584D02*
X026540Y014584D01*
X026565Y014387D02*
X026654Y014387D01*
X026622Y014288D02*
X026711Y014288D01*
X026678Y014190D02*
X026768Y014190D01*
X026735Y014091D02*
X026824Y014091D01*
X026830Y014091D02*
X027113Y014091D01*
X027113Y013993D02*
X023464Y013993D01*
X023490Y014091D02*
X026236Y014091D01*
X026129Y014190D02*
X023447Y014190D01*
X023324Y013894D02*
X027113Y013894D01*
X027113Y013796D02*
X023154Y013796D01*
X022983Y013697D02*
X027113Y013697D01*
X027113Y013599D02*
X022812Y013599D01*
X022642Y013500D02*
X027113Y013500D01*
X027113Y013401D02*
X022637Y013401D01*
X022637Y013303D02*
X027113Y013303D01*
X027113Y013204D02*
X022637Y013204D01*
X022637Y013106D02*
X027113Y013106D01*
X027113Y013007D02*
X022637Y013007D01*
X022694Y012909D02*
X027113Y012909D01*
X027113Y012810D02*
X022792Y012810D01*
X022891Y012712D02*
X027113Y012712D01*
X027113Y012613D02*
X022989Y012613D01*
X023088Y012515D02*
X026097Y012515D01*
X026077Y012507D02*
X025926Y012355D01*
X025843Y012156D01*
X025843Y011942D01*
X025926Y011743D01*
X026077Y011591D01*
X026276Y011509D01*
X026491Y011509D01*
X026689Y011591D01*
X026841Y011743D01*
X026923Y011942D01*
X026923Y012156D01*
X026841Y012355D01*
X026689Y012507D01*
X026491Y012589D01*
X026276Y012589D01*
X026077Y012507D01*
X025987Y012416D02*
X024827Y012416D01*
X024962Y012318D02*
X025910Y012318D01*
X025869Y012219D02*
X025049Y012219D01*
X025090Y012121D02*
X025843Y012121D01*
X025843Y012022D02*
X025123Y012022D01*
X025123Y011924D02*
X025851Y011924D01*
X025891Y011825D02*
X025123Y011825D01*
X025082Y011727D02*
X025942Y011727D01*
X026040Y011628D02*
X025178Y011628D01*
X025342Y011530D02*
X026225Y011530D01*
X026541Y011530D02*
X027113Y011530D01*
X027113Y011628D02*
X026726Y011628D01*
X026825Y011727D02*
X027113Y011727D01*
X027113Y011825D02*
X026875Y011825D01*
X026916Y011924D02*
X027113Y011924D01*
X027113Y012022D02*
X026923Y012022D01*
X026923Y012121D02*
X027113Y012121D01*
X027113Y012219D02*
X026897Y012219D01*
X026856Y012318D02*
X027113Y012318D01*
X027113Y012416D02*
X026780Y012416D01*
X026669Y012515D02*
X027113Y012515D01*
X027113Y011431D02*
X025440Y011431D01*
X025481Y011333D02*
X027113Y011333D01*
X027113Y011234D02*
X025522Y011234D01*
X025523Y011136D02*
X027113Y011136D01*
X027113Y011037D02*
X025523Y011037D01*
X025490Y010939D02*
X027113Y010939D01*
X027113Y010840D02*
X025449Y010840D01*
X025364Y010742D02*
X027113Y010742D01*
X027113Y010643D02*
X025231Y010643D01*
X025203Y010545D02*
X027113Y010545D01*
X027113Y010446D02*
X025203Y010446D01*
X025203Y010348D02*
X027113Y010348D01*
X027113Y010249D02*
X025203Y010249D01*
X025203Y010151D02*
X027113Y010151D01*
X027113Y010052D02*
X025203Y010052D01*
X025203Y009954D02*
X027113Y009954D01*
X027113Y009658D02*
X025382Y009658D01*
X025423Y009560D02*
X027113Y009560D01*
X027113Y009461D02*
X025423Y009461D01*
X025423Y009363D02*
X027113Y009363D01*
X027113Y009264D02*
X025391Y009264D01*
X025350Y009166D02*
X027113Y009166D01*
X027113Y009067D02*
X025264Y009067D01*
X025131Y008969D02*
X027113Y008969D01*
X027113Y008870D02*
X026690Y008870D01*
X026811Y008827D02*
X026811Y008827D01*
X026876Y008772D02*
X027113Y008772D01*
X027113Y008673D02*
X026993Y008673D01*
X027065Y008614D02*
X027065Y008614D01*
X027087Y008575D02*
X027113Y008575D01*
X027333Y008000D02*
X027333Y021000D01*
X027113Y020395D02*
X027069Y020395D01*
X027113Y020297D02*
X026957Y020297D01*
X026840Y020198D02*
X027113Y020198D01*
X027113Y020100D02*
X026608Y020100D01*
X026811Y020173D02*
X026811Y020173D01*
X026059Y020100D02*
X015608Y020100D01*
X015811Y020173D02*
X015811Y020173D01*
X015840Y020198D02*
X025827Y020198D01*
X025856Y020173D02*
X025856Y020173D01*
X025709Y020297D02*
X015957Y020297D01*
X016069Y020395D02*
X025597Y020395D01*
X025602Y020386D02*
X025602Y020386D01*
X025540Y020494D02*
X016126Y020494D01*
X016183Y020592D02*
X025483Y020592D01*
X025433Y020691D02*
X016233Y020691D01*
X016230Y020674D02*
X016230Y020674D01*
X016251Y020789D02*
X025416Y020789D01*
X025399Y020888D02*
X016268Y020888D01*
X016285Y020986D02*
X018663Y020986D01*
X018485Y021085D02*
X016273Y021085D01*
X016288Y021000D02*
X016288Y021000D01*
X016256Y021183D02*
X018387Y021183D01*
X018339Y021282D02*
X016238Y021282D01*
X016199Y021380D02*
X018299Y021380D01*
X018293Y021479D02*
X016142Y021479D01*
X016086Y021577D02*
X018293Y021577D01*
X018322Y021676D02*
X015991Y021676D01*
X016065Y021614D02*
X016065Y021614D01*
X015873Y021774D02*
X018362Y021774D01*
X019327Y021282D02*
X019339Y021282D01*
X019387Y021183D02*
X019280Y021183D01*
X019182Y021085D02*
X019485Y021085D01*
X019663Y020986D02*
X019004Y020986D01*
X020004Y020986D02*
X020663Y020986D01*
X020485Y021085D02*
X020182Y021085D01*
X020280Y021183D02*
X020387Y021183D01*
X020339Y021282D02*
X020327Y021282D01*
X021004Y020986D02*
X021663Y020986D01*
X021485Y021085D02*
X021182Y021085D01*
X021280Y021183D02*
X021387Y021183D01*
X021339Y021282D02*
X021327Y021282D01*
X022004Y020986D02*
X022754Y020986D01*
X022783Y020986D02*
X022883Y020986D01*
X022912Y020986D02*
X025381Y020986D01*
X025379Y021000D02*
X025379Y021000D01*
X025394Y021085D02*
X023146Y021085D01*
X023246Y021183D02*
X025411Y021183D01*
X025428Y021282D02*
X023306Y021282D01*
X023341Y021380D02*
X025467Y021380D01*
X025436Y021326D02*
X025436Y021326D01*
X025524Y021479D02*
X022883Y021479D01*
X022883Y021380D02*
X022783Y021380D01*
X022783Y021282D02*
X022883Y021282D01*
X022883Y021183D02*
X022783Y021183D01*
X022783Y021085D02*
X022883Y021085D01*
X022521Y021085D02*
X022182Y021085D01*
X022280Y021183D02*
X022421Y021183D01*
X022361Y021282D02*
X022327Y021282D01*
X023348Y021577D02*
X025581Y021577D01*
X025676Y021676D02*
X023323Y021676D01*
X023277Y021774D02*
X025793Y021774D01*
X026333Y022000D02*
X015333Y022000D01*
X015333Y021999D02*
X015274Y022001D01*
X015215Y021999D01*
X015156Y021993D01*
X015098Y021984D01*
X015040Y021971D01*
X014983Y021955D01*
X014927Y021935D01*
X014873Y021911D01*
X014820Y021884D01*
X014770Y021854D01*
X014721Y021821D01*
X014674Y021785D01*
X014629Y021745D01*
X014588Y021704D01*
X014548Y021659D01*
X014512Y021612D01*
X014479Y021563D01*
X014449Y021513D01*
X014422Y021460D01*
X014398Y021406D01*
X014378Y021350D01*
X014362Y021293D01*
X014349Y021235D01*
X014340Y021177D01*
X014334Y021118D01*
X014332Y021059D01*
X014334Y021000D01*
X020742Y017145D02*
X020925Y017145D01*
X020855Y017243D02*
X020811Y017243D01*
X021516Y018622D02*
X021948Y018622D01*
X021865Y018721D02*
X021615Y018721D01*
X017224Y016160D02*
X014553Y016160D01*
X014553Y016061D02*
X017058Y016061D01*
X016959Y015963D02*
X014553Y015963D01*
X014553Y015864D02*
X016861Y015864D01*
X016817Y015766D02*
X014553Y015766D01*
X014553Y015667D02*
X015895Y015667D01*
X015784Y015621D02*
X015784Y015621D01*
X015784Y015621D01*
X015731Y015569D02*
X014553Y015569D01*
X019206Y015470D02*
X020017Y015470D01*
X019918Y015372D02*
X019377Y015372D01*
X019547Y015273D02*
X019820Y015273D01*
X019721Y015175D02*
X019718Y015175D01*
X023186Y012416D02*
X024339Y012416D01*
X024205Y012318D02*
X023285Y012318D01*
X023383Y012219D02*
X024118Y012219D01*
X024077Y012121D02*
X023482Y012121D01*
X023580Y012022D02*
X024043Y012022D01*
X024043Y011924D02*
X023679Y011924D01*
X023777Y011825D02*
X024043Y011825D01*
X024084Y011727D02*
X023876Y011727D01*
X023974Y011628D02*
X024125Y011628D01*
X024983Y011125D02*
X024983Y009551D01*
X024883Y009451D01*
X024385Y009658D02*
X021732Y009658D01*
X021732Y009571D02*
X021732Y009929D01*
X021595Y010259D01*
X021342Y010512D01*
X021012Y010648D01*
X020655Y010648D01*
X020324Y010512D01*
X020072Y010259D01*
X019935Y009929D01*
X019935Y009571D01*
X020072Y009241D01*
X020324Y008988D01*
X020655Y008852D01*
X021012Y008852D01*
X021024Y008857D01*
X022062Y007819D01*
X022152Y007729D01*
X022270Y007680D01*
X022390Y007680D01*
X022527Y007542D01*
X022726Y007460D01*
X022941Y007460D01*
X023139Y007542D01*
X023291Y007694D01*
X023373Y007893D01*
X023373Y008107D01*
X023291Y008306D01*
X023139Y008458D01*
X022941Y008540D01*
X022726Y008540D01*
X022527Y008458D01*
X022428Y008358D01*
X021570Y009216D01*
X021595Y009241D01*
X021732Y009571D01*
X021727Y009560D02*
X024344Y009560D01*
X024343Y009461D02*
X021686Y009461D01*
X021645Y009363D02*
X024343Y009363D01*
X024376Y009264D02*
X021605Y009264D01*
X021620Y009166D02*
X024417Y009166D01*
X024503Y009067D02*
X021718Y009067D01*
X021817Y008969D02*
X024636Y008969D01*
X025523Y008476D02*
X023094Y008476D01*
X023219Y008378D02*
X025466Y008378D01*
X025436Y008326D02*
X025436Y008326D01*
X025428Y008279D02*
X023302Y008279D01*
X023343Y008181D02*
X025411Y008181D01*
X025393Y008082D02*
X023373Y008082D01*
X023373Y007984D02*
X025382Y007984D01*
X025379Y008000D02*
X025379Y008000D01*
X025399Y007885D02*
X023370Y007885D01*
X023330Y007787D02*
X025416Y007787D01*
X025434Y007688D02*
X023285Y007688D01*
X023187Y007590D02*
X025485Y007590D01*
X025542Y007491D02*
X023017Y007491D01*
X022650Y007491D02*
X018947Y007491D01*
X018955Y007493D02*
X019033Y007518D01*
X019106Y007555D01*
X019172Y007603D01*
X019230Y007661D01*
X019278Y007727D01*
X019315Y007800D01*
X019341Y007878D01*
X019353Y007959D01*
X019353Y007961D01*
X018872Y007961D01*
X018872Y007480D01*
X018874Y007480D01*
X018955Y007493D01*
X018872Y007491D02*
X018795Y007491D01*
X018795Y007480D02*
X018795Y007961D01*
X018872Y007961D01*
X018872Y008039D01*
X018795Y008039D01*
X018795Y008520D01*
X018792Y008520D01*
X018712Y008507D01*
X018634Y008482D01*
X018561Y008445D01*
X018495Y008397D01*
X018437Y008339D01*
X018389Y008273D01*
X018351Y008200D01*
X018326Y008122D01*
X018313Y008041D01*
X018313Y008039D01*
X018795Y008039D01*
X018795Y007961D01*
X018313Y007961D01*
X018313Y007959D01*
X018326Y007878D01*
X018351Y007800D01*
X018389Y007727D01*
X018437Y007661D01*
X018495Y007603D01*
X018561Y007555D01*
X018634Y007518D01*
X018712Y007493D01*
X018792Y007480D01*
X018795Y007480D01*
X018720Y007491D02*
X016125Y007491D01*
X016068Y007393D02*
X025598Y007393D01*
X025602Y007386D02*
X025602Y007386D01*
X025712Y007294D02*
X015955Y007294D01*
X016182Y007590D02*
X018513Y007590D01*
X018417Y007688D02*
X016233Y007688D01*
X016230Y007674D02*
X016230Y007674D01*
X016250Y007787D02*
X018358Y007787D01*
X018325Y007885D02*
X016268Y007885D01*
X016285Y007984D02*
X018795Y007984D01*
X018872Y007984D02*
X021897Y007984D01*
X021995Y007885D02*
X019342Y007885D01*
X019308Y007787D02*
X022094Y007787D01*
X022249Y007688D02*
X019250Y007688D01*
X019154Y007590D02*
X022480Y007590D01*
X021798Y008082D02*
X019347Y008082D01*
X019341Y008122D02*
X019353Y008041D01*
X019353Y008039D01*
X018872Y008039D01*
X018872Y008520D01*
X018874Y008520D01*
X018955Y008507D01*
X019033Y008482D01*
X019106Y008445D01*
X019172Y008397D01*
X019230Y008339D01*
X019278Y008273D01*
X019315Y008200D01*
X019341Y008122D01*
X019321Y008181D02*
X021700Y008181D01*
X021601Y008279D02*
X019273Y008279D01*
X019191Y008378D02*
X021503Y008378D01*
X021404Y008476D02*
X019044Y008476D01*
X018872Y008476D02*
X018795Y008476D01*
X018795Y008378D02*
X018872Y008378D01*
X018872Y008279D02*
X018795Y008279D01*
X018795Y008181D02*
X018872Y008181D01*
X018872Y008082D02*
X018795Y008082D01*
X018795Y007885D02*
X018872Y007885D01*
X018872Y007787D02*
X018795Y007787D01*
X018795Y007688D02*
X018872Y007688D01*
X018872Y007590D02*
X018795Y007590D01*
X018320Y008082D02*
X016273Y008082D01*
X016288Y008000D02*
X016288Y008000D01*
X016256Y008181D02*
X018345Y008181D01*
X018394Y008279D02*
X016239Y008279D01*
X016201Y008378D02*
X018476Y008378D01*
X018623Y008476D02*
X016144Y008476D01*
X016087Y008575D02*
X021306Y008575D01*
X021207Y008673D02*
X015993Y008673D01*
X016065Y008614D02*
X016065Y008614D01*
X015876Y008772D02*
X021109Y008772D01*
X021915Y008870D02*
X025977Y008870D01*
X025791Y008772D02*
X022014Y008772D01*
X022112Y008673D02*
X025674Y008673D01*
X025580Y008575D02*
X022211Y008575D01*
X022309Y008476D02*
X022573Y008476D01*
X022448Y008378D02*
X022408Y008378D01*
X020609Y008870D02*
X015690Y008870D01*
X015811Y008827D02*
X015811Y008827D01*
X016376Y009145D02*
X016293Y009344D01*
X016293Y009558D01*
X016376Y009757D01*
X014553Y009757D01*
X014553Y009855D02*
X016474Y009855D01*
X016527Y009909D02*
X016376Y009757D01*
X016335Y009658D02*
X014553Y009658D01*
X014553Y009560D02*
X016294Y009560D01*
X016293Y009461D02*
X014553Y009461D01*
X014553Y009363D02*
X016293Y009363D01*
X016326Y009264D02*
X014553Y009264D01*
X014553Y009166D02*
X016367Y009166D01*
X016376Y009145D02*
X016527Y008993D01*
X016726Y008911D01*
X016941Y008911D01*
X017139Y008993D01*
X017291Y009145D01*
X017373Y009344D01*
X017373Y009558D01*
X017291Y009757D01*
X019935Y009757D01*
X019935Y009855D02*
X017192Y009855D01*
X017139Y009909D02*
X016941Y009991D01*
X016726Y009991D01*
X016527Y009909D01*
X016637Y009954D02*
X014553Y009954D01*
X014553Y010052D02*
X019986Y010052D01*
X019945Y009954D02*
X017030Y009954D01*
X017139Y009909D02*
X017291Y009757D01*
X017332Y009658D02*
X019935Y009658D01*
X019940Y009560D02*
X017373Y009560D01*
X017373Y009461D02*
X019980Y009461D01*
X020021Y009363D02*
X017373Y009363D01*
X017341Y009264D02*
X020062Y009264D01*
X020147Y009166D02*
X017300Y009166D01*
X017214Y009067D02*
X020245Y009067D01*
X020371Y008969D02*
X017081Y008969D01*
X016586Y008969D02*
X014553Y008969D01*
X014553Y009067D02*
X016453Y009067D01*
X014977Y008870D02*
X014553Y008870D01*
X014553Y008772D02*
X014791Y008772D01*
X014856Y008827D02*
X014856Y008827D01*
X014674Y008673D02*
X014553Y008673D01*
X014553Y008575D02*
X014580Y008575D01*
X014334Y008000D02*
X014332Y007941D01*
X014334Y007882D01*
X014340Y007823D01*
X014349Y007765D01*
X014362Y007707D01*
X014378Y007650D01*
X014398Y007594D01*
X014422Y007540D01*
X014449Y007487D01*
X014479Y007437D01*
X014512Y007388D01*
X014548Y007341D01*
X014588Y007296D01*
X014629Y007255D01*
X014674Y007215D01*
X014721Y007179D01*
X014770Y007146D01*
X014820Y007116D01*
X014873Y007089D01*
X014927Y007065D01*
X014983Y007045D01*
X015040Y007029D01*
X015098Y007016D01*
X015156Y007007D01*
X015215Y007001D01*
X015274Y006999D01*
X015333Y007001D01*
X015333Y007000D02*
X026333Y007000D01*
X026334Y007001D02*
X026393Y006999D01*
X026452Y007001D01*
X026511Y007007D01*
X026569Y007016D01*
X026627Y007029D01*
X026684Y007045D01*
X026740Y007065D01*
X026794Y007089D01*
X026847Y007116D01*
X026897Y007146D01*
X026946Y007179D01*
X026993Y007215D01*
X027038Y007255D01*
X027079Y007296D01*
X027119Y007341D01*
X027155Y007388D01*
X027188Y007437D01*
X027218Y007487D01*
X027245Y007540D01*
X027269Y007594D01*
X027289Y007650D01*
X027305Y007707D01*
X027318Y007765D01*
X027327Y007823D01*
X027333Y007882D01*
X027335Y007941D01*
X027333Y008000D01*
X025341Y009757D02*
X025203Y009895D01*
X024763Y010052D02*
X021680Y010052D01*
X021721Y009954D02*
X024687Y009954D01*
X024763Y010151D02*
X021640Y010151D01*
X021599Y010249D02*
X024763Y010249D01*
X024763Y010348D02*
X021506Y010348D01*
X021407Y010446D02*
X024763Y010446D01*
X024763Y010545D02*
X024234Y010545D01*
X024424Y010643D02*
X024734Y010643D01*
X024602Y010742D02*
X024522Y010742D01*
X023932Y010545D02*
X021262Y010545D01*
X021024Y010643D02*
X023743Y010643D01*
X023645Y010742D02*
X018072Y010742D01*
X017974Y010643D02*
X020643Y010643D01*
X020405Y010545D02*
X017784Y010545D01*
X020027Y010151D02*
X014553Y010151D01*
X014553Y010249D02*
X020068Y010249D01*
X020161Y010348D02*
X014553Y010348D01*
X014553Y010446D02*
X020259Y010446D01*
X026937Y014190D02*
X027113Y014190D01*
X027113Y014288D02*
X027000Y014288D01*
X027037Y014387D02*
X027113Y014387D01*
X027113Y014485D02*
X027053Y014485D01*
X027049Y014584D02*
X027113Y014584D01*
X027113Y014682D02*
X027027Y014682D01*
X027333Y021000D02*
X027335Y021059D01*
X027333Y021118D01*
X027327Y021177D01*
X027318Y021235D01*
X027305Y021293D01*
X027289Y021350D01*
X027269Y021406D01*
X027245Y021460D01*
X027218Y021513D01*
X027188Y021563D01*
X027155Y021612D01*
X027119Y021659D01*
X027079Y021704D01*
X027038Y021745D01*
X026993Y021785D01*
X026946Y021821D01*
X026897Y021854D01*
X026847Y021884D01*
X026794Y021911D01*
X026740Y021935D01*
X026684Y021955D01*
X026627Y021971D01*
X026569Y021984D01*
X026511Y021993D01*
X026452Y021999D01*
X026393Y022001D01*
X026334Y021999D01*
D11*
X024049Y015350D03*
X017617Y015350D03*
X020833Y009750D03*
D12*
X020833Y011750D03*
D13*
G36*
X019083Y015344D02*
X020343Y014616D01*
X019615Y013356D01*
X018355Y014084D01*
X019083Y015344D01*
G37*
G36*
X023311Y014084D02*
X022051Y013356D01*
X021323Y014616D01*
X022583Y015344D01*
X023311Y014084D01*
G37*
D14*
X026533Y014518D03*
X026383Y012049D03*
X024983Y011125D03*
X024083Y011067D03*
X024583Y011933D03*
X024883Y009451D03*
X022833Y008000D03*
X018833Y008000D03*
X016833Y009451D03*
X017633Y011067D03*
X016734Y011125D03*
X017133Y011933D03*
X015333Y012049D03*
X015133Y014518D03*
X020333Y017500D03*
X021333Y017500D03*
X020833Y018250D03*
X022333Y019000D03*
X024533Y017982D03*
X019333Y019000D03*
X017133Y017982D03*
X018833Y021500D03*
X019833Y021500D03*
X020833Y021500D03*
X021833Y021500D03*
X022833Y021500D03*
D15*
X025683Y021000D02*
X025685Y021050D01*
X025691Y021100D01*
X025701Y021150D01*
X025714Y021198D01*
X025731Y021246D01*
X025752Y021292D01*
X025776Y021336D01*
X025804Y021378D01*
X025835Y021418D01*
X025869Y021455D01*
X025906Y021490D01*
X025945Y021521D01*
X025986Y021550D01*
X026030Y021575D01*
X026076Y021597D01*
X026123Y021615D01*
X026171Y021629D01*
X026220Y021640D01*
X026270Y021647D01*
X026320Y021650D01*
X026371Y021649D01*
X026421Y021644D01*
X026471Y021635D01*
X026519Y021623D01*
X026567Y021606D01*
X026613Y021586D01*
X026658Y021563D01*
X026701Y021536D01*
X026741Y021506D01*
X026779Y021473D01*
X026814Y021437D01*
X026847Y021398D01*
X026876Y021357D01*
X026902Y021314D01*
X026925Y021269D01*
X026944Y021222D01*
X026959Y021174D01*
X026971Y021125D01*
X026979Y021075D01*
X026983Y021025D01*
X026983Y020975D01*
X026979Y020925D01*
X026971Y020875D01*
X026959Y020826D01*
X026944Y020778D01*
X026925Y020731D01*
X026902Y020686D01*
X026876Y020643D01*
X026847Y020602D01*
X026814Y020563D01*
X026779Y020527D01*
X026741Y020494D01*
X026701Y020464D01*
X026658Y020437D01*
X026613Y020414D01*
X026567Y020394D01*
X026519Y020377D01*
X026471Y020365D01*
X026421Y020356D01*
X026371Y020351D01*
X026320Y020350D01*
X026270Y020353D01*
X026220Y020360D01*
X026171Y020371D01*
X026123Y020385D01*
X026076Y020403D01*
X026030Y020425D01*
X025986Y020450D01*
X025945Y020479D01*
X025906Y020510D01*
X025869Y020545D01*
X025835Y020582D01*
X025804Y020622D01*
X025776Y020664D01*
X025752Y020708D01*
X025731Y020754D01*
X025714Y020802D01*
X025701Y020850D01*
X025691Y020900D01*
X025685Y020950D01*
X025683Y021000D01*
X014683Y021000D02*
X014685Y021050D01*
X014691Y021100D01*
X014701Y021150D01*
X014714Y021198D01*
X014731Y021246D01*
X014752Y021292D01*
X014776Y021336D01*
X014804Y021378D01*
X014835Y021418D01*
X014869Y021455D01*
X014906Y021490D01*
X014945Y021521D01*
X014986Y021550D01*
X015030Y021575D01*
X015076Y021597D01*
X015123Y021615D01*
X015171Y021629D01*
X015220Y021640D01*
X015270Y021647D01*
X015320Y021650D01*
X015371Y021649D01*
X015421Y021644D01*
X015471Y021635D01*
X015519Y021623D01*
X015567Y021606D01*
X015613Y021586D01*
X015658Y021563D01*
X015701Y021536D01*
X015741Y021506D01*
X015779Y021473D01*
X015814Y021437D01*
X015847Y021398D01*
X015876Y021357D01*
X015902Y021314D01*
X015925Y021269D01*
X015944Y021222D01*
X015959Y021174D01*
X015971Y021125D01*
X015979Y021075D01*
X015983Y021025D01*
X015983Y020975D01*
X015979Y020925D01*
X015971Y020875D01*
X015959Y020826D01*
X015944Y020778D01*
X015925Y020731D01*
X015902Y020686D01*
X015876Y020643D01*
X015847Y020602D01*
X015814Y020563D01*
X015779Y020527D01*
X015741Y020494D01*
X015701Y020464D01*
X015658Y020437D01*
X015613Y020414D01*
X015567Y020394D01*
X015519Y020377D01*
X015471Y020365D01*
X015421Y020356D01*
X015371Y020351D01*
X015320Y020350D01*
X015270Y020353D01*
X015220Y020360D01*
X015171Y020371D01*
X015123Y020385D01*
X015076Y020403D01*
X015030Y020425D01*
X014986Y020450D01*
X014945Y020479D01*
X014906Y020510D01*
X014869Y020545D01*
X014835Y020582D01*
X014804Y020622D01*
X014776Y020664D01*
X014752Y020708D01*
X014731Y020754D01*
X014714Y020802D01*
X014701Y020850D01*
X014691Y020900D01*
X014685Y020950D01*
X014683Y021000D01*
X014683Y008000D02*
X014685Y008050D01*
X014691Y008100D01*
X014701Y008150D01*
X014714Y008198D01*
X014731Y008246D01*
X014752Y008292D01*
X014776Y008336D01*
X014804Y008378D01*
X014835Y008418D01*
X014869Y008455D01*
X014906Y008490D01*
X014945Y008521D01*
X014986Y008550D01*
X015030Y008575D01*
X015076Y008597D01*
X015123Y008615D01*
X015171Y008629D01*
X015220Y008640D01*
X015270Y008647D01*
X015320Y008650D01*
X015371Y008649D01*
X015421Y008644D01*
X015471Y008635D01*
X015519Y008623D01*
X015567Y008606D01*
X015613Y008586D01*
X015658Y008563D01*
X015701Y008536D01*
X015741Y008506D01*
X015779Y008473D01*
X015814Y008437D01*
X015847Y008398D01*
X015876Y008357D01*
X015902Y008314D01*
X015925Y008269D01*
X015944Y008222D01*
X015959Y008174D01*
X015971Y008125D01*
X015979Y008075D01*
X015983Y008025D01*
X015983Y007975D01*
X015979Y007925D01*
X015971Y007875D01*
X015959Y007826D01*
X015944Y007778D01*
X015925Y007731D01*
X015902Y007686D01*
X015876Y007643D01*
X015847Y007602D01*
X015814Y007563D01*
X015779Y007527D01*
X015741Y007494D01*
X015701Y007464D01*
X015658Y007437D01*
X015613Y007414D01*
X015567Y007394D01*
X015519Y007377D01*
X015471Y007365D01*
X015421Y007356D01*
X015371Y007351D01*
X015320Y007350D01*
X015270Y007353D01*
X015220Y007360D01*
X015171Y007371D01*
X015123Y007385D01*
X015076Y007403D01*
X015030Y007425D01*
X014986Y007450D01*
X014945Y007479D01*
X014906Y007510D01*
X014869Y007545D01*
X014835Y007582D01*
X014804Y007622D01*
X014776Y007664D01*
X014752Y007708D01*
X014731Y007754D01*
X014714Y007802D01*
X014701Y007850D01*
X014691Y007900D01*
X014685Y007950D01*
X014683Y008000D01*
X025683Y008000D02*
X025685Y008050D01*
X025691Y008100D01*
X025701Y008150D01*
X025714Y008198D01*
X025731Y008246D01*
X025752Y008292D01*
X025776Y008336D01*
X025804Y008378D01*
X025835Y008418D01*
X025869Y008455D01*
X025906Y008490D01*
X025945Y008521D01*
X025986Y008550D01*
X026030Y008575D01*
X026076Y008597D01*
X026123Y008615D01*
X026171Y008629D01*
X026220Y008640D01*
X026270Y008647D01*
X026320Y008650D01*
X026371Y008649D01*
X026421Y008644D01*
X026471Y008635D01*
X026519Y008623D01*
X026567Y008606D01*
X026613Y008586D01*
X026658Y008563D01*
X026701Y008536D01*
X026741Y008506D01*
X026779Y008473D01*
X026814Y008437D01*
X026847Y008398D01*
X026876Y008357D01*
X026902Y008314D01*
X026925Y008269D01*
X026944Y008222D01*
X026959Y008174D01*
X026971Y008125D01*
X026979Y008075D01*
X026983Y008025D01*
X026983Y007975D01*
X026979Y007925D01*
X026971Y007875D01*
X026959Y007826D01*
X026944Y007778D01*
X026925Y007731D01*
X026902Y007686D01*
X026876Y007643D01*
X026847Y007602D01*
X026814Y007563D01*
X026779Y007527D01*
X026741Y007494D01*
X026701Y007464D01*
X026658Y007437D01*
X026613Y007414D01*
X026567Y007394D01*
X026519Y007377D01*
X026471Y007365D01*
X026421Y007356D01*
X026371Y007351D01*
X026320Y007350D01*
X026270Y007353D01*
X026220Y007360D01*
X026171Y007371D01*
X026123Y007385D01*
X026076Y007403D01*
X026030Y007425D01*
X025986Y007450D01*
X025945Y007479D01*
X025906Y007510D01*
X025869Y007545D01*
X025835Y007582D01*
X025804Y007622D01*
X025776Y007664D01*
X025752Y007708D01*
X025731Y007754D01*
X025714Y007802D01*
X025701Y007850D01*
X025691Y007900D01*
X025685Y007950D01*
X025683Y008000D01*
D16*
X022833Y008000D02*
X022333Y008000D01*
X020833Y009500D01*
X020833Y009750D01*
X020833Y011750D02*
X019333Y011750D01*
X019150Y011933D01*
X017133Y011933D01*
X019349Y014350D02*
X021333Y016334D01*
X021333Y017500D01*
X022333Y017500D02*
X023333Y018500D01*
X023333Y020500D01*
X022833Y021000D01*
X022833Y021500D01*
X024533Y017982D02*
X024049Y017498D01*
X024049Y015350D01*
X022317Y014350D02*
X022317Y012833D01*
X024083Y011067D01*
X017617Y015350D02*
X015965Y015350D01*
X015133Y014518D01*
M02*
