%
M48
M72
T01C0.0320
T02C0.0354
T03C0.0400
T04C0.0945
T05C0.1300
%
T01
X17633Y11067
X16734Y11125
X17133Y11933
X24083Y11067
X24983Y11125
X24583Y11933
X21333Y17500
X20333Y17500
X20833Y18250
T02
X22333Y19000
X24533Y17982
X19333Y19000
X17133Y17982
X15133Y14518
X15333Y12049
X16833Y9451
X18833Y8000
X22833Y8000
X24883Y9451
X26383Y12049
X26533Y14518
T03
X22833Y21500
X21833Y21500
X20833Y21500
X19833Y21500
X18833Y21500
T04
X17617Y15350
X19349Y14350
X22317Y14350
X24049Y15350
X20833Y11750
X20833Y9750
T05
X15333Y8000
X26333Y8000
X26333Y21000
X15333Y21000
M30
