G75*
G70*
%OFA0B0*%
%FSLAX24Y24*%
%IPPOS*%
%LPD*%
%AMOC8*
5,1,8,0,0,1.08239X$1,22.5*
%
%ADD10C,0.1537*%
%ADD11R,0.1537X0.1537*%
%ADD12R,0.1537X0.1537*%
%ADD13C,0.0820*%
%ADD14C,0.1380*%
D10*
X020833Y009750D03*
X017617Y015350D03*
X024049Y015350D03*
D11*
X020833Y011750D03*
D12*
G36*
X019068Y015399D02*
X020398Y014631D01*
X019630Y013301D01*
X018300Y014069D01*
X019068Y015399D01*
G37*
G36*
X023366Y014069D02*
X022036Y013301D01*
X021268Y014631D01*
X022598Y015399D01*
X023366Y014069D01*
G37*
D13*
X026533Y014518D03*
X026383Y012049D03*
X024983Y011125D03*
X024083Y011067D03*
X024583Y011933D03*
X024883Y009451D03*
X022833Y008000D03*
X018833Y008000D03*
X016833Y009451D03*
X017633Y011067D03*
X016734Y011125D03*
X017133Y011933D03*
X015333Y012049D03*
X015133Y014518D03*
X020333Y017500D03*
X021333Y017500D03*
X020833Y018250D03*
X022333Y019000D03*
X024533Y017982D03*
X019333Y019000D03*
X017133Y017982D03*
X018833Y021500D03*
X019833Y021500D03*
X020833Y021500D03*
X021833Y021500D03*
X022833Y021500D03*
D14*
X015333Y008000D03*
X026333Y008000D03*
X026333Y021000D03*
X015333Y021000D03*
M02*
